<svg xmlns="http://www.w3.org/2000/svg" xmlns:svg="http://www.w3.org/2000/svg" xmlns:xlink="http://www.w3.org/1999/xlink" id="svg2" width="900" height="320" version="1.1"><defs id="defs4"><linearGradient id="linearGradient5513"><stop id="stop5515" offset="0" stop-color="#000" stop-opacity="1"/><stop id="stop5517" offset="1" stop-color="#000" stop-opacity="0"/></linearGradient><marker id="Arrow1Mend" orient="auto" overflow="visible" refX="0" refY="0"><path id="path3886" fill-rule="evenodd" stroke="#000" stroke-width="1pt" d="M 0,0 5,-5 -12.5,0 5,5 0,0 z" transform="matrix(-0.4,0,0,-0.4,-4,0)"/></marker><marker id="Arrow2Lend" orient="auto" overflow="visible" refX="0" refY="0"><path id="path3898" fill-rule="evenodd" stroke-linejoin="round" stroke-width=".625" d="M 8.7185878,4.0337352 -2.2072895,0.01601326 8.7185884,-4.0017078 c -1.7454984,2.3720609 -1.7354408,5.6174519 -6e-7,8.035443 z" transform="matrix(-1.1,0,0,-1.1,-1.1,0)"/></marker><linearGradient id="linearGradient5519" x1="-104.355" x2="-242.32" y1="220.968" y2="325.207" gradientUnits="userSpaceOnUse" xlink:href="#linearGradient5513"/></defs><metadata id="metadata7"/><g id="layer1" transform="translate(128.48318,-155.03173)"><rect id="rect5543" width="24.016" height="18.906" x="-109.976" y="455.215" fill="none" stroke="none" rx="4.378"><desc id="desc6103">to push connector lines around</desc></rect><rect id="rect6198" width="141.39" height="20" x="198.141" y="166.229" fill="#76c5d9" fill-opacity="1" fill-rule="evenodd" stroke="none" rx="1.614"/><rect id="rect3419" width="111.198" height="20" x="375.479" y="191.568" fill="#5fd35f" fill-rule="evenodd" stroke="none" rx="2.443"/><rect id="rect3528" width="66.717" height="20" x="673.995" y="280.676" fill="#7b57ff" fill-opacity="1" fill-rule="evenodd" stroke="none" rx="2.443"/><rect id="rect9751" width="83.028" height="20" x="201.827" y="196.025" fill="#76c5d9" fill-opacity="1" fill-rule="evenodd" stroke="none" rx="1.614"/><path id="path9841" fill="none" stroke="#000" stroke-linecap="butt" stroke-linejoin="miter" stroke-opacity="1" stroke-width="1" d="m 503.74794,46.812191 c -12.60296,0 -22.98188,-25.576606 -35.95552,-25.576606" transform="translate(-128.48318,155.03173)"/><path id="path9845" fill="none" stroke="#000" stroke-linecap="butt" stroke-linejoin="miter" stroke-opacity="1" stroke-width="1" d="m 503.74794,46.812191 c -12.60296,0 -78.21252,4.448106 -91.18616,4.448106" transform="translate(-128.48318,155.03173)"/><path id="path9847" fill="none" stroke="#000" stroke-linecap="butt" stroke-linejoin="miter" stroke-opacity="1" stroke-width="1" d="m 503.74794,46.812191 c -12.60296,0 -23.35255,34.472818 -45.59308,34.472818" transform="translate(-128.48318,155.03173)"/><rect id="rect9753" width="100.229" height="20" x="230.086" y="225.82" fill="#76c5d9" fill-opacity="1" fill-rule="evenodd" stroke="none" rx="1.614"/><rect id="rect9781" width="29.048" height="20" x="458.3" y="295.69" fill="#e580ff" fill-rule="evenodd" stroke="none" rx="2.443"/><path id="path9885" fill="none" stroke="#000" stroke-linecap="butt" stroke-linejoin="miter" stroke-opacity="1" stroke-width="1" d="m 802.51236,136.88633 c -29.06299,0 -14.98516,-19.12027 -29.65404,-19.12027" transform="translate(-128.48318,155.03173)"/><path id="path9887" fill="none" stroke="#000" stroke-linecap="butt" stroke-linejoin="miter" stroke-opacity="1" stroke-width="1" d="m 802.51236,136.88633 c -31.52032,0 -13.14215,22.08566 -29.65404,22.08566" transform="translate(-128.48318,155.03173)"/><rect id="rect9789" width="29.048" height="20" x="615.915" y="303.69" fill="#e580ff" fill-rule="evenodd" stroke="none" rx="2.443"/><path id="path9889" fill="none" stroke="#000" stroke-linecap="butt" stroke-linejoin="miter" stroke-opacity="1" stroke-width="1" d="m 802.51236,136.88633 c -29.13747,0 -20.51997,4.96236 -55.49452,4.96236 -43.64482,0 -126.45149,9.49398 -131.69659,9.49398" transform="translate(-128.48318,155.03173)"/><path id="path9891" fill="none" stroke="#000" stroke-linecap="butt" stroke-linejoin="miter" stroke-opacity="1" stroke-width="1" d="m 802.51236,136.88633 c -28.85709,0 -20.20268,-3.86849 -55.96023,-3.86849 -43.32532,0 -126.22581,-7.62245 -131.23088,-7.62245" transform="translate(-128.48318,155.03173)"/><rect id="rect9779" width="29.048" height="20" x="458.3" y="270.484" fill="#e580ff" fill-rule="evenodd" stroke="none" rx="2.443"/><rect id="rect9787" width="29.048" height="20" x="615.915" y="262.484" fill="#e580ff" fill-rule="evenodd" stroke="none" rx="2.443"/></g></svg>