<svg xmlns="http://www.w3.org/2000/svg" xmlns:svg="http://www.w3.org/2000/svg" id="svg2" width="900.95" height="400" version="1.1"><metadata id="metadata7"/><g id="layer1" transform="translate(131.24452,-72.559932)"><path id="path18780" fill="none" stroke="#000" stroke-linecap="butt" stroke-linejoin="miter" stroke-opacity="1" stroke-width="1.139" d="m -12.037766,184.03571 c 9.0176418,0 9.6867088,-21.25858 19.3542479,-21.25858"/><path id="path18782" fill="none" stroke="#000" stroke-linecap="butt" stroke-linejoin="miter" stroke-opacity="1" stroke-width="1.139" d="m -12.037766,184.03571 c 9.0176418,0 9.6867088,21.79441 19.3542479,21.79441"/><path id="path18784" fill="none" stroke="#000" stroke-linecap="butt" stroke-linejoin="miter" stroke-opacity="1" stroke-width="1.139" d="m 62.291065,205.88759 c 6.130522,0 25.776055,3.76191 33.996522,3.76191"/><path id="path18786" fill="none" stroke="#000" stroke-linecap="butt" stroke-linejoin="miter" stroke-opacity="1" stroke-width="1.139" d="m 62.291065,205.88759 c 16.719604,0 59.911915,32.74256 110.349365,32.74256"/><path id="path18788" fill="none" stroke="#000" stroke-linecap="butt" stroke-linejoin="miter" stroke-opacity="1" stroke-width="1.139" d="m 61.455085,162.97394 c 9.056452,0 14.350993,16.85893 22.989455,16.85893"/><path id="path18790" fill="none" stroke="#000" stroke-linecap="butt" stroke-linejoin="miter" stroke-opacity="1" stroke-width="1.139" d="m 61.455085,162.97394 c 9.056452,0 21.178164,-13.09703 29.816629,-13.09703"/><path id="path18792" fill="none" stroke="#000" stroke-linecap="butt" stroke-linejoin="miter" stroke-opacity="1" stroke-width="1.139" d="m 230.04442,150.01625 c 11.70372,0 8.91712,-11.42507 23.12878,-11.42507"/><path id="path18794" fill="none" stroke="#000" stroke-linecap="butt" stroke-linejoin="miter" stroke-opacity="1" stroke-width="1.139" d="m 230.04442,150.01625 c 11.70372,0 11.98237,11.14639 26.19403,11.14639"/><path id="path18796" fill="none" stroke="#000" stroke-linecap="butt" stroke-linejoin="miter" stroke-opacity="1" stroke-width="1.139" d="m 349.03226,152.52419 c -8.91712,0 -12.26104,8.91712 -23.12878,8.91712"/><path id="path18798" fill="none" stroke="#000" stroke-linecap="butt" stroke-linejoin="miter" stroke-opacity="1" stroke-width="1.139" d="m 349.03226,152.52419 c -8.91712,0 -13.09702,-13.93301 -23.96476,-13.93301"/><path id="path18800" fill="none" stroke="#000" stroke-linecap="butt" stroke-linejoin="miter" stroke-opacity="1" stroke-width="1.139" d="m 197.16253,209.37083 c 13.09703,0 61.02655,0 69.94367,0"/><path id="path18802" fill="none" stroke="#000" stroke-linecap="butt" stroke-linejoin="miter" stroke-opacity="1" stroke-width="1.139" d="m 271.60659,238.5512 c 6.68785,0.27867 9.47445,0.27867 16.16228,0.27867"/><path id="path18804" fill="none" stroke="#000" stroke-linecap="butt" stroke-linejoin="miter" stroke-opacity="1" stroke-width="1.139" d="m 306.67594,207.97754 c 7.52381,0 15.32629,0 19.22754,0"/><path id="path19314" fill="none" stroke="#000" stroke-linecap="butt" stroke-linejoin="miter" stroke-opacity="1" stroke-width="1.139" d="m 376.34095,151.40954 c 13.37568,0 36.50446,40.12705 55.73201,40.12705"/><path id="path19316" fill="none" stroke="#000" stroke-linecap="butt" stroke-linejoin="miter" stroke-opacity="1" stroke-width="1.139" d="m 350.1469,207.97754 c 13.37568,0 62.69851,-16.44095 81.92606,-16.44095"/><path id="path19318" fill="none" stroke="#000" stroke-linecap="butt" stroke-linejoin="miter" stroke-opacity="1" stroke-width="1.139" d="m 371.32507,238.90881 c 13.37568,0 41.52034,-47.37222 60.74789,-47.37222"/><path id="path19320" fill="none" stroke="#000" stroke-linecap="butt" stroke-linejoin="miter" stroke-opacity="1" stroke-width="1.139" d="m 462.27137,114.05184 c 11.58413,0 19.73591,16.30358 30.46196,16.30358"/><path id="path19322" fill="none" stroke="#000" stroke-linecap="butt" stroke-linejoin="miter" stroke-opacity="1" stroke-width="1.139" d="m 462.27137,114.05184 c 11.58413,0 50.19787,-15.445505 60.92391,-15.445505"/><path id="path19324" fill="none" stroke="#000" stroke-linecap="butt" stroke-linejoin="miter" stroke-opacity="1" stroke-width="1.139" d="m 462.27137,114.05184 c 8.35654,0 93.11676,3.85436 144.15863,3.85436 20.10022,0 30.1601,12.02018 35.18079,12.02018"/><path id="path19326" fill="none" stroke="#000" stroke-linecap="butt" stroke-linejoin="miter" stroke-opacity="1" stroke-width="1.139" d="m 462.27137,114.05184 c 6.38687,0 93.01218,-4.74947 142.94884,-4.74947 43.03246,0 43.86268,-12.412202 60.41691,-12.412202"/><path id="path19328" fill="none" stroke="#000" stroke-linecap="butt" stroke-linejoin="miter" stroke-opacity="1" stroke-width="1.139" d="m 462.27137,114.05184 c 16.09695,0 13.212,20.13835 34.18723,32.41074 18.03267,10.55072 49.31739,13.49672 65.77948,13.49672"/><path id="path19332" fill="none" stroke="#000" stroke-linecap="butt" stroke-linejoin="miter" stroke-opacity="1" stroke-width="1.139" d="m 364.44986,114.48087 c 28.31675,0 28.31675,0.42905 28.31675,0.42905"/><path id="path19334" fill="none" stroke="#000" stroke-linecap="butt" stroke-linejoin="miter" stroke-opacity="1" stroke-width="1.139" d="m -92.9255,340.89811 c 13.729334,0 16.303583,-19.73592 25.7425,-19.73592"/><path id="path19336" fill="none" stroke="#000" stroke-linecap="butt" stroke-linejoin="miter" stroke-opacity="1" stroke-width="1.139" d="m -92.9255,340.89811 c 13.729334,0 17.590708,17.5907 27.029625,17.5907"/><path id="path19338" fill="none" stroke="#000" stroke-linecap="butt" stroke-linejoin="miter" stroke-opacity="1" stroke-width="1.139" d="m -12.69471,322.87836 c 9.8679636,0 17.1616636,0 28.316754,0"/><path id="path19340" fill="none" stroke="#000" stroke-linecap="butt" stroke-linejoin="miter" stroke-opacity="1" stroke-width="1.139" d="m -13.552793,357.4985 c 19.7359165,0 19.7359165,0.42903 19.7359165,0.42903"/><path id="path19342" fill="none" stroke="#000" stroke-linecap="butt" stroke-linejoin="miter" stroke-opacity="1" stroke-width="1.139" d="m 69.252243,358.70333 c 10.297,0 23.3642,-7.69992 28.7365,-7.69992"/><path id="path19344" fill="none" stroke="#000" stroke-linecap="butt" stroke-linejoin="miter" stroke-opacity="1" stroke-width="1.139" d="m 69.252243,358.70333 c 10.297,0 22.93516,18.90067 28.30747,18.90067"/><path id="path19346" fill="none" stroke="#000" stroke-linecap="butt" stroke-linejoin="miter" stroke-opacity="1" stroke-width="1.139" d="m 78.691153,322.87836 c 6.22111,0 16.51811,4.93397 25.098947,4.93397"/><path id="path19348" fill="none" stroke="#000" stroke-linecap="butt" stroke-linejoin="miter" stroke-opacity="1" stroke-width="1.139" d="m 78.691153,322.87836 c 6.22111,0 16.51811,-20.80853 25.098947,-20.80853"/><path id="path19350" fill="none" stroke="#000" stroke-linecap="butt" stroke-linejoin="miter" stroke-opacity="1" stroke-width="1.139" d="m 78.691153,322.87836 c 6.22111,0 16.51811,-44.40581 25.098947,-44.40581"/><path id="path19352" fill="none" stroke="#000" stroke-linecap="butt" stroke-linejoin="miter" stroke-opacity="1" stroke-width="1.139" d="m 129.96164,278.04351 c 19.95044,0 19.95044,0 19.95044,0"/><path id="path19354" fill="none" stroke="#000" stroke-linecap="butt" stroke-linejoin="miter" stroke-opacity="1" stroke-width="1.139" d="m 129.74713,301.6408 c 19.95043,0 19.95043,0 19.95043,0"/><path id="path19356" fill="none" stroke="#000" stroke-linecap="butt" stroke-linejoin="miter" stroke-opacity="1" stroke-width="1.139" d="m 129.74713,328.4559 c 19.95043,0 19.95043,0 19.95043,0"/><path id="path19358" fill="none" stroke="#000" stroke-linecap="butt" stroke-linejoin="miter" stroke-opacity="1" stroke-width="1.139" d="m 123.74055,351.62415 c 19.95043,0 19.95043,0 19.95043,0"/><path id="path19360" fill="none" stroke="#000" stroke-linecap="butt" stroke-linejoin="miter" stroke-opacity="1" stroke-width="1.139" d="m 123.52602,376.7231 c 19.95043,0 19.95043,0 19.95043,0"/><path id="path19362" fill="none" stroke="#000" stroke-linecap="butt" stroke-linejoin="miter" stroke-opacity="1" stroke-width="1.139" d="m 129.74713,301.6408 c 19.95043,0 19.95043,0 19.95043,0"/><path id="path19368" fill="none" stroke="#000" stroke-linecap="butt" stroke-linejoin="miter" stroke-opacity="1" stroke-width="1.139" d="m 175.28384,302.40327 c 24.76083,0 108.70609,0 129.23947,0"/><path id="path19370" fill="none" stroke="#000" stroke-linecap="butt" stroke-linejoin="miter" stroke-opacity="1" stroke-width="1.139" d="m 175.28384,277.64244 c 24.76083,0 108.70609,24.76083 129.23947,24.76083"/><path id="path19372" fill="none" stroke="#000" stroke-linecap="butt" stroke-linejoin="miter" stroke-opacity="1" stroke-width="1.139" d="m 175.28384,328.97588 c 24.76083,0 108.70609,-26.57261 129.23947,-26.57261"/><path id="path19374" fill="none" stroke="#000" stroke-linecap="butt" stroke-linejoin="miter" stroke-opacity="1" stroke-width="1.139" d="m 169.84853,351.32103 c 7.85099,0 10.26669,11.47453 18.11768,11.47453"/><path id="path19376" fill="none" stroke="#000" stroke-linecap="butt" stroke-linejoin="miter" stroke-opacity="1" stroke-width="1.139" d="m 169.84853,377.28971 c 7.85099,0 10.26669,-14.49415 18.11768,-14.49415"/><path id="path19378" fill="none" stroke="#000" stroke-linecap="butt" stroke-linejoin="miter" stroke-opacity="1" stroke-width="1.139" d="m 390.3398,301.94276 c 19.95044,0 19.95044,0 19.95044,0"/><path id="path19380" fill="none" stroke="#000" stroke-linecap="butt" stroke-linejoin="miter" stroke-opacity="1" stroke-width="1.139" d="m 292.50431,363.24092 c 19.95044,0 30.51909,0 30.51909,0"/><path id="path19382" fill="none" stroke="#000" stroke-linecap="butt" stroke-linejoin="miter" stroke-opacity="1" stroke-width="1.139" d="m 368.60817,422.00176 c 9.96473,0 22.94906,0 31.40398,0"/><path id="path19384" fill="none" stroke="#000" stroke-linecap="butt" stroke-linejoin="miter" stroke-opacity="1" stroke-width="1.139" d="m 467.95347,422.60569 c 12.38041,0 35.9334,0 43.48243,0"/><path id="path19386" fill="none" stroke="#000" stroke-linecap="butt" stroke-linejoin="miter" stroke-opacity="1" stroke-width="1.139" d="m 467.95347,422.60569 c 12.38041,0 35.9334,-22.34514 43.48243,-22.34514"/><path id="path19388" fill="none" stroke="#000" stroke-linecap="butt" stroke-linejoin="miter" stroke-opacity="1" stroke-width="1.139" d="m 467.95347,422.60569 c 12.38041,0 35.9334,19.6275 43.48243,19.6275"/><path id="path19390" fill="none" stroke="#000" stroke-linecap="butt" stroke-linejoin="miter" stroke-opacity="1" stroke-width="1.139" d="m 566.69484,399.95857 c 9.96472,0 11.47453,12.07846 24.15691,12.07846"/><path id="path19392" fill="none" stroke="#000" stroke-linecap="butt" stroke-linejoin="miter" stroke-opacity="1" stroke-width="1.139" d="m 556.42815,421.39783 c 9.96472,0 21.74122,-9.3608 34.4236,-9.3608"/><path id="path19394" fill="none" stroke="#000" stroke-linecap="butt" stroke-linejoin="miter" stroke-opacity="1" stroke-width="1.139" d="m 577.8674,441.62925 c 7.24709,0 26.27065,0 32.30987,0"/><path id="path19396" fill="none" stroke="#000" stroke-linecap="butt" stroke-linejoin="miter" stroke-opacity="1" stroke-width="1.139" d="m 680.53428,411.73507 c 9.96473,0 18.49978,17.54405 30.38718,17.54405"/><path id="path19398" fill="none" stroke="#000" stroke-linecap="butt" stroke-linejoin="miter" stroke-opacity="1" stroke-width="1.139" d="m 685.96959,442.83708 c 9.96473,0 13.06447,-13.55796 24.95187,-13.55796"/><rect id="rect4809" width="56.342" height="15.203" x="6.059" y="155.237" fill="#f95" fill-rule="evenodd" stroke="none" rx="2.764"/><rect id="rect4811" width="132.93" height="15.203" x="431.076" y="184.078" fill="#ef6f6f" fill-opacity="1" fill-rule="evenodd" stroke="none" rx="2.038"/><rect id="rect7390" width="120.339" height="15.203" x="318.892" y="355.607" fill="#76c5d9" fill-opacity="1" fill-rule="evenodd" stroke="none" rx="2.038"/><rect id="rect7392" width="102.352" height="15.203" x="407.201" y="294.378" fill="#76c5d9" fill-opacity="1" fill-rule="evenodd" stroke="none" rx="2.038"/><rect id="rect7394" width="81.693" height="15.203" x="83.801" y="171.601" fill="#76c5d9" fill-opacity="1" fill-rule="evenodd" stroke="none" rx="2.038"/><rect id="rect7398" width="142.25" height="15.203" x="90.134" y="142.351" fill="#76c5d9" fill-opacity="1" fill-rule="evenodd" stroke="none" rx="2.038"/><rect id="rect8241" width="107.849" height="15.203" x="-294.927" y="-370.81" fill="#e580ff" fill-opacity="1" fill-rule="evenodd" stroke="none" rx="2.038" transform="scale(-1,-1)"/><rect id="rect8243" width="89.761" height="15.203" x="-393.213" y="-309.582" fill="#76c5d9" fill-opacity="1" fill-rule="evenodd" stroke="none" rx="2.038" transform="scale(-1,-1)"/><rect id="rect8247" width="74.497" height="15.203" x="-326.923" y="-146.118" fill="#e580ff" fill-opacity="1" fill-rule="evenodd" stroke="none" rx="2.038" transform="scale(-1,-1)"/><rect id="rect8251" width="28.71" height="15.203" x="-131.501" y="-309.582" fill="#5fd35f" fill-opacity="1" fill-rule="evenodd" stroke="none" rx="2.038" transform="scale(-1,-1)"/><rect id="rect8259" width="28.71" height="15.203" x="-176.952" y="-309.582" fill="#5fd35f" fill-opacity="1" fill-rule="evenodd" stroke="none" rx="2.038" transform="scale(-1,-1)"/><rect id="rect8263" width="28.71" height="15.203" x="-131.501" y="-286.056" fill="#5fd35f" fill-opacity="1" fill-rule="evenodd" stroke="none" rx="2.038" transform="scale(-1,-1)"/><rect id="rect8265" width="28.71" height="15.203" x="-176.952" y="-286.056" fill="#5fd35f" fill-opacity="1" fill-rule="evenodd" stroke="none" rx="2.038" transform="scale(-1,-1)"/><rect id="rect8288" width="56.342" height="15.203" x="6.059" y="198.064" fill="#f95" fill-rule="evenodd" stroke="none" rx="2.764"/><rect id="rect8290" width="102.352" height="15.203" x="95.856" y="201.963" fill="#76c5d9" fill-opacity="1" fill-rule="evenodd" stroke="none" rx="2.038"/><rect id="rect8292" width="102.352" height="15.203" x="172.182" y="230.825" fill="#76c5d9" fill-opacity="1" fill-rule="evenodd" stroke="none" rx="2.038"/><rect id="rect8294" width="56.342" height="15.203" x="-68.686" y="314.227" fill="#f95" fill-rule="evenodd" stroke="none" rx="2.764"/><rect id="rect8296" width="56.342" height="15.203" x="-67.787" y="350.149" fill="#f95" fill-rule="evenodd" stroke="none" rx="2.764"/><rect id="rect8298" width="56.342" height="15.203" x="511.226" y="392.558" fill="#f95" fill-rule="evenodd" stroke="none" rx="2.764"/><rect id="rect8300" width="46.449" height="15.203" x="511.226" y="413.519" fill="#f95" fill-rule="evenodd" stroke="none" rx="2.764"/><rect id="rect8302" width="67.135" height="15.203" x="511.226" y="433.976" fill="#f95" fill-rule="evenodd" stroke="none" rx="2.764"/><rect id="rect8306" width="64.939" height="15.203" x="14.572" y="314.711" fill="#76c5d9" fill-opacity="1" fill-rule="evenodd" stroke="none" rx="2.038"/><rect id="rect8308" width="68.102" height="15.203" x="3.342" y="350.149" fill="#76c5d9" fill-opacity="1" fill-rule="evenodd" stroke="none" rx="2.038"/><rect id="rect8310" width="74.497" height="15.203" x="-327.822" y="-168.463" fill="#e580ff" fill-opacity="1" fill-rule="evenodd" stroke="none" rx="2.038" transform="scale(-1,-1)"/><rect id="rect8312" width="85.29" height="15.203" x="-372.968" y="-245.466" fill="#e580ff" fill-opacity="1" fill-rule="evenodd" stroke="none" rx="2.038" transform="scale(-1,-1)"/><rect id="rect8314" width="42.12" height="15.203" x="-308.354" y="-215.845" fill="#e580ff" fill-opacity="1" fill-rule="evenodd" stroke="none" rx="2.038" transform="scale(-1,-1)"/><rect id="rect8316" width="28.71" height="15.203" x="-125.016" y="-358.926" fill="#5fd35f" fill-opacity="1" fill-rule="evenodd" stroke="none" rx="2.038" transform="scale(-1,-1)"/><rect id="rect8318" width="28.71" height="15.203" x="-170.466" y="-358.926" fill="#5fd35f" fill-opacity="1" fill-rule="evenodd" stroke="none" rx="2.038" transform="scale(-1,-1)"/><rect id="rect8320" width="28.71" height="15.203" x="-131.501" y="-335.4" fill="#5fd35f" fill-opacity="1" fill-rule="evenodd" stroke="none" rx="2.038" transform="scale(-1,-1)"/><rect id="rect8322" width="28.71" height="15.203" x="-176.952" y="-335.4" fill="#5fd35f" fill-opacity="1" fill-rule="evenodd" stroke="none" rx="2.038" transform="scale(-1,-1)"/><rect id="rect8324" width="28.71" height="15.203" x="-125.016" y="-384.063" fill="#5fd35f" fill-opacity="1" fill-rule="evenodd" stroke="none" rx="2.038" transform="scale(-1,-1)"/><rect id="rect8326" width="28.71" height="15.203" x="-170.466" y="-384.063" fill="#5fd35f" fill-opacity="1" fill-rule="evenodd" stroke="none" rx="2.038" transform="scale(-1,-1)"/><rect id="rect8328" width="91.171" height="15.203" x="-681.182" y="-419.756" fill="#e580ff" fill-opacity="1" fill-rule="evenodd" stroke="none" rx="2.038" transform="scale(-1,-1)"/><rect id="rect8330" width="76.782" height="15.203" x="-686.993" y="-449.179" fill="#e580ff" fill-opacity="1" fill-rule="evenodd" stroke="none" rx="2.038" transform="scale(-1,-1)"/><rect id="rect8332" width="28.71" height="15.203" x="-351.043" y="-215.305" fill="#5fd35f" fill-opacity="1" fill-rule="evenodd" stroke="none" rx="2.038" transform="scale(-1,-1)"/><rect id="rect8334" width="28.71" height="15.203" x="-377.086" y="-158.92" fill="#5fd35f" fill-opacity="1" fill-rule="evenodd" stroke="none" rx="2.038" transform="scale(-1,-1)"/><rect id="rect8336" width="71.632" height="15.203" x="398.195" y="413.896" fill="#f95" fill-rule="evenodd" stroke="none" rx="2.764"/><rect id="rect8338" width="71.632" height="15.203" x="391.845" y="106.682" fill="#f95" fill-rule="evenodd" stroke="none" rx="2.764"/><rect id="rect8354" width="28.71" height="15.203" x="-176.952" y="-335.4" fill="#5fd35f" fill-opacity="1" fill-rule="evenodd" stroke="none" rx="2.038" transform="scale(-1,-1)"/><rect id="rect8373" width="102.352" height="15.203" x="491.172" y="122.684" fill="#76c5d9" fill-opacity="1" fill-rule="evenodd" stroke="none" rx="2.038"/><rect id="rect8375" width="102.352" height="15.203" x="521.751" y="91.029" fill="#76c5d9" fill-opacity="1" fill-rule="evenodd" stroke="none" rx="2.038"/><rect id="rect8377" width="65.478" height="15.203" x="561.323" y="152.477" fill="#76c5d9" fill-opacity="1" fill-rule="evenodd" stroke="none" rx="2.038"/><rect id="rect8379" width="91.559" height="15.203" x="640.466" y="120.822" fill="#76c5d9" fill-opacity="1" fill-rule="evenodd" stroke="none" rx="2.038"/><rect id="rect8381" width="69.975" height="15.203" x="662.951" y="89.167" fill="#76c5d9" fill-opacity="1" fill-rule="evenodd" stroke="none" rx="2.038"/><rect id="rect3931" width="28.71" height="15.203" x="-739.085" y="-435.843" fill="#7b57ff" fill-opacity="1" fill-rule="evenodd" stroke="none" rx="2.038" transform="scale(-1,-1)"/><path id="path19400" fill="none" stroke="#000" stroke-dasharray=".797 .797" stroke-dashoffset="0" stroke-linecap="butt" stroke-linejoin="miter" stroke-miterlimit="4" stroke-opacity="1" stroke-width=".797" d="m -14.630525,400.6296 c 110.738148,7.70564 221.464025,-4.79453 334.438045,-10.63664 65.21209,-3.37225 116.87547,-2.96253 171.92629,-30.02791 33.775,-24.35131 53.25776,-47.3761 29.64139,-83.45541 -22.91749,-22.93357 -57.59498,-13.06279 -86.1487,-11.47076 -72.6801,7.79373 -134.63275,35.66898 -207.1186,13.05694 -26.70389,-8.04397 -38.79371,-9.42791 -88.34195,-9.42791 -59.514827,0 -68.565317,4.42334 -97.766227,15.31168 -48.8358265,16.56377 -103.061864,7.83953 -150.255853,29.94641 -17.83009,15.29831 -6.5449,41.61887 9.335875,53.63816 23.597745,19.20314 54.287945,29.68419 84.28973,33.06544 z"/><path id="path19417" fill="none" stroke="#000" stroke-dasharray=".797 .797" stroke-dashoffset="0" stroke-linecap="butt" stroke-linejoin="miter" stroke-miterlimit="4" stroke-opacity="1" stroke-width=".797" d="m 577.86611,189.70785 c -14.56833,-20.14971 -46.45174,-14.2984 -68.80239,-16.2676 -29.26505,-0.44931 -59.14239,11.22759 -87.69681,-0.1253 -17.3265,-4.8869 -26.92062,-17.26692 -40.07858,-28.62888 -46.10015,-28.50404 -106.01802,-16.24709 -157.4338,-19.22908 -65.42132,-0.30679 -128.767888,23.33621 -194.510037,14.90688 -27.0275494,-3.15734 -55.099497,18.42077 -50.176897,47.25971 0.56369,24.38063 19.6817138,47.54821 44.928204,48.1665 30.055959,4.57547 60.889502,0.22574 90.66733,7.37221 80.76087,9.36471 162.23433,4.96996 243.32206,5.55893 27.06081,0.24082 54.75788,-1.99365 79.16008,-14.64217 29.19616,-13.17491 60.13651,-22.66231 92.29597,-24.2541 15.28918,-3.48277 43.77956,-1.15373 48.32487,-20.1171 z"/><path id="path19440" fill="none" stroke="#000" stroke-dasharray=".797 .797" stroke-dashoffset="0" stroke-linecap="butt" stroke-linejoin="miter" stroke-miterlimit="4" stroke-opacity="1" stroke-width=".797" d="m 349.43431,415.97332 c 0.5501,-5.61082 32.14956,-16.96042 91.17439,-16.96042 46.77129,0 61.53418,-10.97931 104.4643,-11.57704 29.21617,-0.40678 87.42546,8.66222 115.45756,11.07038 21.31374,1.831 93.74595,5.82921 93.74595,28.04224 0,48.62702 -188.4352,33.4575 -207.01667,33.4575 -37.4195,0 -74.69771,-15.96382 -106.00927,-15.40818 -72.31387,1.28323 -93.35419,-12.93788 -91.81626,-28.62448 z"/><path id="path19461" fill="#ff0" fill-opacity="1" stroke="red" stroke-dasharray="none" stroke-dashoffset="0" stroke-miterlimit="4" stroke-opacity="1" stroke-width=".7" d="m 57.404738,113.34208 -1.046247,3.52588 2.703797,2.50597 -3.676612,0.0945 -1.547804,3.34585 -1.226024,-3.46746 -3.660392,-0.43813 2.918887,-2.23752 -0.714442,-3.61663 3.029995,2.0846 z" transform="translate(-68.254371,66.197291)"/><path id="path19463" fill="#ff0" fill-opacity="1" stroke="red" stroke-dasharray="none" stroke-dashoffset="0" stroke-miterlimit="4" stroke-opacity="1" stroke-width=".7" d="m 57.404738,113.34208 -1.046247,3.52588 2.703797,2.50597 -3.676612,0.0945 -1.547804,3.34585 -1.226024,-3.46746 -3.660392,-0.43813 2.918887,-2.23752 -0.714442,-3.61663 3.029995,2.0846 z" transform="translate(-147.78738,222.08201)"/><path id="path19465" fill="#ff0" fill-opacity="1" stroke="red" stroke-dasharray="none" stroke-dashoffset="0" stroke-miterlimit="4" stroke-opacity="1" stroke-width=".7" d="m 57.404738,113.34208 -1.046247,3.52588 2.703797,2.50597 -3.676612,0.0945 -1.547804,3.34585 -1.226024,-3.46746 -3.660392,-0.43813 2.918887,-2.23752 -0.714442,-3.61663 3.029995,2.0846 z" transform="translate(312.23158,304.16008)"/><path id="path19467" fill="#ff0" fill-opacity="1" stroke="red" stroke-dasharray="none" stroke-dashoffset="0" stroke-miterlimit="4" stroke-opacity="1" stroke-width=".7" d="m 57.404738,113.34208 -1.046247,3.52588 2.703797,2.50597 -3.676612,0.0945 -1.547804,3.34585 -1.226024,-3.46746 -3.660392,-0.43813 2.918887,-2.23752 -0.714442,-3.61663 3.029995,2.0846 z" transform="translate(309.68652,-2.5192314)"/><path id="path19469" fill="none" stroke="#000" stroke-dasharray=".7 .7" stroke-dashoffset="0" stroke-linecap="butt" stroke-linejoin="miter" stroke-miterlimit="4" stroke-opacity="1" stroke-width=".7" d="m 353.58875,114.97949 c 0,18.96677 62.58859,10.37839 114.90488,28.8859 11.10268,3.92771 81.92169,31.76741 127.47709,31.76741 60.33336,0 38.50446,-22.76854 94.89967,-29.11317 36.66297,-4.12468 55.56144,1.38954 55.56144,-32.37811 0,-29.23233 -7.85519,-36.292255 -49.92154,-36.904457 -41.3162,-0.601285 -113.26429,5.930035 -139.28787,6.782318 -99.91589,3.272285 -203.63367,6.09187 -203.63367,30.960109 z"/></g></svg>