<svg xmlns="http://www.w3.org/2000/svg" xmlns:osb="http://www.openswatchbook.org/uri/2009/osb" xmlns:svg="http://www.w3.org/2000/svg" xmlns:xlink="http://www.w3.org/1999/xlink" id="svg2" width="428.03" height="211.904" version="1.1"><defs id="defs4"><marker id="Arrow1Mend" orient="auto" overflow="visible" refX="0" refY="0"><path id="path9844" fill-rule="evenodd" stroke="#000" stroke-width="1pt" d="M 0,0 5,-5 -12.5,0 5,5 0,0 z" transform="matrix(-0.4,0,0,-0.4,-4,0)"/></marker><marker id="Arrow1Lend" orient="auto" overflow="visible" refX="0" refY="0"><path id="path9838" fill-rule="evenodd" stroke="#000" stroke-width="1pt" d="M 0,0 5,-5 -12.5,0 5,5 0,0 z" transform="matrix(-0.8,0,0,-0.8,-10,0)"/></marker><filter id="filter5617" color-interpolation-filters="sRGB"><feGaussianBlur id="feGaussianBlur5619" stdDeviation="1.118"/></filter><linearGradient id="linearGradient5824" x1="590.906" x2="712.906" y1="62.924" y2="62.924" gradientTransform="translate(-371.15077,-190.20171)" gradientUnits="userSpaceOnUse" xlink:href="#linearGradient5587"/><linearGradient id="linearGradient5587" osb:paint="solid"><stop id="stop5589" offset="0" stop-color="#d9d5d2" stop-opacity="1"/></linearGradient><filter id="filter6048" color-interpolation-filters="sRGB"><feGaussianBlur id="feGaussianBlur6050" stdDeviation=".806"/></filter><linearGradient id="linearGradient6058" x1="590.906" x2="712.906" y1="62.924" y2="62.924" gradientTransform="matrix(0.65444882,0,0,1.0067169,-166.88393,-162.62436)" gradientUnits="userSpaceOnUse" xlink:href="#linearGradient5587-9"/><linearGradient id="linearGradient5587-9" osb:paint="solid"><stop id="stop5589-3" offset="0" stop-color="#d9d5d2" stop-opacity="1"/></linearGradient><linearGradient id="linearGradient8829" x1="590.906" x2="712.906" y1="62.924" y2="62.924" gradientTransform="matrix(0.65444882,0,0,1.0067169,-69.173281,-163.04282)" gradientUnits="userSpaceOnUse" xlink:href="#linearGradient5587-9"/><linearGradient id="linearGradient8854" x1="590.906" x2="712.906" y1="62.924" y2="62.924" gradientTransform="translate(-371.15077,-190.20171)" gradientUnits="userSpaceOnUse" xlink:href="#linearGradient5587"/><linearGradient id="linearGradient8856" x1="590.906" x2="712.906" y1="62.924" y2="62.924" gradientTransform="matrix(0.65444882,0,0,1.0067169,-166.88393,-162.62436)" gradientUnits="userSpaceOnUse" xlink:href="#linearGradient5587-9"/><linearGradient id="linearGradient8858" x1="590.906" x2="712.906" y1="62.924" y2="62.924" gradientTransform="matrix(0.65444882,0,0,1.0067169,-69.173281,-163.04282)" gradientUnits="userSpaceOnUse" xlink:href="#linearGradient5587-9"/><linearGradient id="linearGradient8881" x1="590.906" x2="712.906" y1="62.924" y2="62.924" gradientTransform="translate(-482.47731,124.58136)" gradientUnits="userSpaceOnUse" xlink:href="#linearGradient5587"/><linearGradient id="linearGradient8884" x1="590.906" x2="712.906" y1="62.924" y2="62.924" gradientTransform="matrix(0.65444882,0,0,1.0067169,-166.88393,-162.62436)" gradientUnits="userSpaceOnUse" xlink:href="#linearGradient5587-9"/><linearGradient id="linearGradient8886" x1="590.906" x2="712.906" y1="62.924" y2="62.924" gradientTransform="matrix(0.65444882,0,0,1.0067169,-69.173281,-163.04282)" gradientUnits="userSpaceOnUse" xlink:href="#linearGradient5587-9"/><linearGradient id="linearGradient8891" x1="590.906" x2="712.906" y1="62.924" y2="62.924" gradientTransform="matrix(0.65444882,0,0,1.0067169,-168.74776,175.01922)" gradientUnits="userSpaceOnUse" xlink:href="#linearGradient5587-9"/><linearGradient id="linearGradient8897" x1="590.906" x2="712.906" y1="62.924" y2="62.924" gradientTransform="matrix(0.65444882,0,0,1.0067169,-266.4584,175.43768)" gradientUnits="userSpaceOnUse" xlink:href="#linearGradient5587-9"/><linearGradient id="linearGradient8938" x1="590.906" x2="712.906" y1="62.924" y2="62.924" gradientTransform="matrix(0.65444882,0,0,1.0067169,-266.4584,175.43768)" gradientUnits="userSpaceOnUse" xlink:href="#linearGradient5587-9"/><linearGradient id="linearGradient8938-7" x1="590.906" x2="712.906" y1="62.924" y2="62.924" gradientTransform="matrix(0.65444882,0,0,1.0067169,-169.7939,177.11153)" gradientUnits="userSpaceOnUse" xlink:href="#linearGradient5587-9-8"/><linearGradient id="linearGradient5587-9-8" osb:paint="solid"><stop id="stop5589-3-8" offset="0" stop-color="#d9d5d2" stop-opacity="1"/></linearGradient><filter id="filter6048-3" color-interpolation-filters="sRGB"><feGaussianBlur id="feGaussianBlur6050-1" stdDeviation=".806"/></filter><linearGradient id="linearGradient8938-0" x1="590.906" x2="712.906" y1="62.924" y2="62.924" gradientTransform="matrix(0.65444882,0,0,1.0067169,-68.52633,177.11153)" gradientUnits="userSpaceOnUse" xlink:href="#linearGradient5587-9-5"/><linearGradient id="linearGradient5587-9-5" osb:paint="solid"><stop id="stop5589-3-7" offset="0" stop-color="#d9d5d2" stop-opacity="1"/></linearGradient><filter id="filter6048-7" color-interpolation-filters="sRGB"><feGaussianBlur id="feGaussianBlur6050-7" stdDeviation=".806"/></filter><linearGradient id="linearGradient9015" x1="590.906" x2="712.906" y1="62.924" y2="62.924" gradientTransform="translate(-482.47731,124.58136)" gradientUnits="userSpaceOnUse" xlink:href="#linearGradient5587"/><marker id="Arrow1Mend-4" orient="auto" overflow="visible" refX="0" refY="0"><path id="path9844-8" fill-rule="evenodd" stroke="#000" stroke-width="1pt" d="M 0,0 5,-5 -12.5,0 5,5 0,0 z" transform="matrix(-0.4,0,0,-0.4,-4,0)"/></marker><marker id="marker10479" orient="auto" overflow="visible" refX="0" refY="0"><path id="path10481" fill-rule="evenodd" stroke="#000" stroke-width="1pt" d="M 0,0 5,-5 -12.5,0 5,5 0,0 z" transform="matrix(-0.4,0,0,-0.4,-4,0)"/></marker><linearGradient id="linearGradient10670" x1="590.906" x2="712.906" y1="62.924" y2="62.924" gradientTransform="matrix(0.65444882,0,0,1.0067169,-167.28313,77.517806)" gradientUnits="userSpaceOnUse" xlink:href="#linearGradient5587-9-8"/><linearGradient id="linearGradient10672" x1="590.906" x2="712.906" y1="62.924" y2="62.924" gradientTransform="matrix(0.65444882,0,0,1.0067169,-263.94763,75.843956)" gradientUnits="userSpaceOnUse" xlink:href="#linearGradient5587-9"/><linearGradient id="linearGradient10674" x1="590.906" x2="712.906" y1="62.924" y2="62.924" gradientTransform="matrix(0.65444882,0,0,1.0067169,-66.015564,77.517806)" gradientUnits="userSpaceOnUse" xlink:href="#linearGradient5587-9-5"/><linearGradient id="linearGradient11055" x1="590.906" x2="712.906" y1="62.924" y2="62.924" gradientTransform="matrix(0.65444882,0,0,1.0067169,-266.4584,175.43768)" gradientUnits="userSpaceOnUse" xlink:href="#linearGradient5587-9"/><linearGradient id="linearGradient11071" x1="590.906" x2="712.906" y1="62.924" y2="62.924" gradientTransform="matrix(0.65444882,0,0,1.0067169,-168.74776,175.01922)" gradientUnits="userSpaceOnUse" xlink:href="#linearGradient5587-9"/><linearGradient id="linearGradient11119" x1="590.906" x2="712.906" y1="62.924" y2="62.924" gradientTransform="matrix(0.65444882,0,0,1.0067169,-168.74776,175.01922)" gradientUnits="userSpaceOnUse" xlink:href="#linearGradient5587-9"/><linearGradient id="linearGradient11121" x1="590.906" x2="712.906" y1="62.924" y2="62.924" gradientTransform="matrix(0.65444882,0,0,1.0067169,-266.4584,175.43768)" gradientUnits="userSpaceOnUse" xlink:href="#linearGradient5587-9"/><linearGradient id="linearGradient11138" x1="590.906" x2="712.906" y1="62.924" y2="62.924" gradientTransform="matrix(0.65444882,0,0,1.0067169,-66.015564,77.517806)" gradientUnits="userSpaceOnUse" xlink:href="#linearGradient5587-9-5"/><linearGradient id="linearGradient11140" x1="590.906" x2="712.906" y1="62.924" y2="62.924" gradientTransform="matrix(0.65444882,0,0,1.0067169,-263.94763,75.843956)" gradientUnits="userSpaceOnUse" xlink:href="#linearGradient5587-9"/><linearGradient id="linearGradient11142" x1="590.906" x2="712.906" y1="62.924" y2="62.924" gradientTransform="matrix(0.65444882,0,0,1.0067169,-167.28313,77.517806)" gradientUnits="userSpaceOnUse" xlink:href="#linearGradient5587-9-8"/></defs><metadata id="metadata7"/><g id="layer1" transform="translate(-36.791826,-143.75509)"><path id="path10728" fill="none" stroke="#000" stroke-linecap="butt" stroke-linejoin="miter" stroke-opacity="1" stroke-width="1" marker-end="url(#Arrow1Mend)" d="m 208.5776,256.32318 c -22.946,9.49689 -30.28367,7.4965 -41.45559,19.47344"/><path id="path9057" fill="none" stroke="#000" stroke-linecap="butt" stroke-linejoin="miter" stroke-opacity="1" stroke-width="1" marker-end="url(#Arrow1Mend)" d="M 164.45983,229.87106 C 141.86294,211.45877 67.14455,228.53503 57.31324,173.30668"/><text id="text9059" x="137.281" y="162.647" fill="#000" fill-opacity="1" stroke="none" font-family="Sans" font-size="14" font-style="normal" font-weight="normal" letter-spacing="0" transform="matrix(0.94458691,0.32826143,-0.32826143,0.94458691,0,0)" word-spacing="0" xml:space="preserve" style="line-height:125%"><tspan id="tspan9061" x="137.281" y="162.647">events</tspan></text><path id="path10461" fill="none" stroke="#000" stroke-linecap="butt" stroke-linejoin="miter" stroke-opacity="1" stroke-width="1" marker-end="url(#Arrow1Mend)" d="m 99.602987,172.22275 c 22.596893,18.41229 77.466173,27.69285 79.766963,56.56439"/><path id="path10514" fill="none" stroke="#000" stroke-linecap="butt" stroke-linejoin="miter" stroke-opacity="1" stroke-width="1" marker-end="url(#Arrow1Mend)" d="m 223.65807,229.03434 c -11.85735,-18.52368 -12.9637,-37.68261 -5.3447,-57.72032"/><text id="text10516" x="177.878" y="-223.643" fill="#000" fill-opacity="1" stroke="none" font-family="Sans" font-size="14" font-style="normal" font-weight="normal" letter-spacing="0" transform="matrix(0,1,-1,0,0,0)" word-spacing="0" xml:space="preserve" style="line-height:125%"><tspan id="tspan10518" x="177.878" y="-223.643">events</tspan></text><text id="text10522" x="182.793" y="-291.401" fill="#000" fill-opacity="1" stroke="none" font-family="Sans" font-size="14" font-style="normal" font-weight="normal" letter-spacing="0" transform="matrix(0,1,-1,0,0,0)" word-spacing="0" xml:space="preserve" style="line-height:125%"><tspan id="tspan10524" x="182.793" y="-291.401">read</tspan></text><path id="path10526" fill="none" stroke="#000" stroke-linecap="butt" stroke-linejoin="miter" stroke-opacity="1" stroke-width="1" marker-end="url(#Arrow1Mend)" d="m 248.76334,171.06682 c 8.20211,20.68069 5.31229,38.0901 -0.15446,57.72032"/><text id="text10528" x="194.32" y="105.766" fill="#000" fill-opacity="1" stroke="none" font-family="Sans" font-size="14" font-style="normal" font-weight="normal" letter-spacing="0" transform="matrix(0.89630542,0.44343725,-0.44343725,0.89630542,0,0)" word-spacing="0" xml:space="preserve" style="line-height:125%"><tspan id="tspan10530" x="194.32" y="105.766">read</tspan></text><text id="text10557" x="177.505" y="-258.703" fill="#000" fill-opacity="1" stroke="none" font-family="Sans" font-size="14" font-style="normal" font-weight="normal" letter-spacing="0" transform="matrix(0,1,-1,0,0,0)" word-spacing="0" xml:space="preserve" style="line-height:125%"><tspan id="tspan10561" x="177.505" y="-258.703">control</tspan></text><path id="path10584" fill="none" stroke="#000" stroke-linecap="butt" stroke-linejoin="miter" stroke-opacity="1" stroke-width="1" marker-end="url(#Arrow1Mend)" d="m 312.07746,229.03434 c 2.08647,-48.95273 69.55483,-27.99033 81.73235,-56.724"/><text id="text10586" x="278.5" y="263.353" fill="#000" fill-opacity="1" stroke="none" font-family="Sans" font-size="14" font-style="normal" font-weight="normal" letter-spacing="0" transform="matrix(0.97380004,-0.22740598,0.22740598,0.97380004,0,0)" word-spacing="0" xml:space="preserve" style="line-height:125%"><tspan id="tspan10588" x="278.5" y="263.353">events</tspan></text><path id="path10590" fill="none" stroke="#000" stroke-linecap="butt" stroke-linejoin="miter" stroke-opacity="1" stroke-width="1" marker-end="url(#Arrow1Mend)" d="m 454.33228,171.64478 c -12.54553,41.42221 -79.65122,26.17901 -116.67646,57.14236"/><text id="text10592" x="340.204" y="298.164" fill="#000" fill-opacity="1" stroke="none" font-family="Sans" font-size="14" font-style="normal" font-weight="normal" letter-spacing="0" transform="matrix(0.97774952,-0.20977576,0.20977576,0.97774952,0,0)" word-spacing="0" xml:space="preserve" style="line-height:125%"><tspan id="tspan10594" x="340.204" y="298.164">read</tspan></text><path id="path10596" fill="none" stroke="#000" stroke-linecap="butt" stroke-linejoin="miter" stroke-opacity="1" stroke-width="1" marker-end="url(#Arrow1Mend)" d="m 421.43041,172.22275 c -9.82617,41.00385 -72.06026,26.64695 -97.78973,56.56439"/><text id="text10598" x="282.896" y="286.354" fill="#000" fill-opacity="1" stroke="none" font-family="Sans" font-size="14" font-style="normal" font-weight="normal" letter-spacing="0" transform="matrix(0.97014452,-0.24252756,0.24252756,0.97014452,0,0)" word-spacing="0" xml:space="preserve" style="line-height:125%"><tspan id="tspan10602" x="282.896" y="286.354">updates</tspan></text><g id="g9049" transform="translate(-85.899578,19.082296)"><path id="path8930" fill="#000" fill-opacity="1" stroke="none" d="m 204.28555,154.29523 c 0,0.55369 -0.2945,1.00671 -0.65444,1.00671 H 125.7517 c -0.35995,0 -0.65445,-0.45302 -0.65445,-1.00671 v -26.20988 c 0,-0.55369 0.2945,-1.00671 0.65445,-1.00671 h 77.87941 c 0.35994,0 0.65444,0.45302 0.65444,1.00671 v 26.20988 z" filter="url(#filter6048)" opacity=".5"/><path id="path8932" fill="url(#linearGradient11140)" fill-opacity="1" stroke="#303539" stroke-width=".812" d="m 202.28555,152.29523 c 0,0.55369 -0.2945,1.00671 -0.65444,1.00671 H 123.7517 c -0.35995,0 -0.65445,-0.45302 -0.65445,-1.00671 v -26.20988 c 0,-0.55369 0.2945,-1.00671 0.65445,-1.00671 h 77.87941 c 0.35994,0 0.65444,0.45302 0.65444,1.00671 v 26.20988 z"/><text id="text8934" x="162.536" y="144.934" fill="#000" fill-opacity="1" stroke="none" font-family="FreeSans" font-size="16" font-stretch="normal" font-style="normal" font-variant="normal" font-weight="600" letter-spacing="0" text-anchor="middle" word-spacing="0" xml:space="preserve" style="text-align:center;line-height:125%;-inkscape-font-specification:FreeSans Semi-Bold"><tspan id="tspan8936" x="162.536" y="144.934">Status</tspan></text></g><g id="g9037" transform="translate(60.671086,17.408446)"><path id="path8930-5" fill="#000" fill-opacity="1" stroke="none" d="m 402.21762,155.96908 c 0,0.55369 -0.2945,1.00671 -0.65444,1.00671 h -77.87941 c -0.35995,0 -0.65445,-0.45302 -0.65445,-1.00671 V 129.7592 c 0,-0.55369 0.2945,-1.00671 0.65445,-1.00671 h 77.87941 c 0.35994,0 0.65444,0.45302 0.65444,1.00671 v 26.20988 z" filter="url(#filter6048-7)" opacity=".5"/><path id="path8932-9" fill="url(#linearGradient11138)" fill-opacity="1" stroke="#303539" stroke-width=".812" d="m 400.21762,153.96908 c 0,0.55369 -0.2945,1.00671 -0.65444,1.00671 h -77.87941 c -0.35995,0 -0.65445,-0.45302 -0.65445,-1.00671 V 127.7592 c 0,-0.55369 0.2945,-1.00671 0.65445,-1.00671 h 77.87941 c 0.35994,0 0.65444,0.45302 0.65444,1.00671 v 26.20988 z"/><text id="text8934-9" x="360.468" y="146.608" fill="#000" fill-opacity="1" stroke="none" font-family="FreeSans" font-size="16" font-stretch="normal" font-style="normal" font-variant="normal" font-weight="600" letter-spacing="0" text-anchor="middle" word-spacing="0" xml:space="preserve" style="text-align:center;line-height:125%;-inkscape-font-specification:FreeSans Semi-Bold"><tspan id="tspan8936-9" x="360.468" y="146.608">Process</tspan></text></g><path id="path10724" fill="none" stroke="#000" stroke-linecap="butt" stroke-linejoin="miter" stroke-opacity="1" stroke-width="1" marker-end="url(#Arrow1Mend)" d="m 290.52674,256.32318 c 24.84148,13.70784 30.61114,5.46523 45.02254,18.48678"/><g id="g8920" transform="translate(49.3784,55.803037)"><path id="path5804" fill="#000" fill-opacity="1" stroke="#303539" stroke-dasharray="none" stroke-miterlimit="4" stroke-width="0" d="m 291.92857,202.52254 c 0,0.55 -0.45,1 -1,1 l -179,0 c -0.55,0 -1,-0.45 -1,-1 l 0,-26.035 c 0,-0.55 0.45,-1 1,-1 l 179,0 c 0.55,0 1,0.45 1,1 z" filter="url(#filter5617)" opacity=".5"/><path id="path5806" fill="url(#linearGradient9015)" fill-opacity="1" stroke="#303539" d="m 289.92857,200.52254 c 0,0.55 -0.45,1 -1,1 l -179,0 c -0.55,0 -1,-0.45 -1,-1 l 0,-26.035 c 0,-0.55 0.45,-1 1,-1 l 179,0 c 0.55,0 1,0.45 1,1 z"/><text font-stretch="normal" style="text-align:center;line-height:125%;-inkscape-font-specification:FreeSans Semi-Bold" id="text5808" x="199.433" y="191.689" fill="#000" fill-opacity="1" stroke="none" font-family="FreeSans" font-size="16" font-style="normal" font-variant="normal" font-weight="600" letter-spacing="0" text-anchor="middle" word-spacing="0" xml:space="preserve"><tspan id="tspan5814" x="199.433" y="191.689">Data API</tspan></text></g><g id="g11103" transform="translate(0,-38)"><path id="path11017" fill="none" stroke="#000" stroke-linecap="butt" stroke-linejoin="miter" stroke-opacity="1" stroke-width="1" d="m 183.30888,342.55364 24.50519,23.68835"/><path id="path11019" fill="none" stroke="#000" stroke-linecap="butt" stroke-linejoin="miter" stroke-opacity="1" stroke-width="1" d="m 161.25421,340.91996 0,27.77255 0,11.03443"/><path id="path11021" fill="none" stroke="#000" stroke-linecap="butt" stroke-linejoin="miter" stroke-opacity="1" stroke-width="1" d="m 135.93218,341.7368 -19.60415,26.13887"/><g id="g8908" transform="translate(0.914642,89.53886)"><path id="path6040" fill="#000" fill-opacity="1" stroke="none" d="m 201.77478,253.88895 c 0,0.55369 -0.2945,1.00671 -0.65444,1.00671 h -77.87941 c -0.35995,0 -0.65445,-0.45302 -0.65445,-1.00671 v -26.20988 c 0,-0.55369 0.2945,-1.00671 0.65445,-1.00671 h 77.87941 c 0.35994,0 0.65444,0.45302 0.65444,1.00671 v 26.20988 z" filter="url(#filter6048)" opacity=".5"/><path id="path6026" fill="url(#linearGradient11121)" fill-opacity="1" stroke="#303539" stroke-width=".812" d="m 199.77478,251.88895 c 0,0.55369 -0.2945,1.00671 -0.65444,1.00671 h -77.87941 c -0.35995,0 -0.65445,-0.45302 -0.65445,-1.00671 v -26.20988 c 0,-0.55369 0.2945,-1.00671 0.65445,-1.00671 h 77.87941 c 0.35994,0 0.65444,0.45302 0.65444,1.00671 v 26.20988 z"/><text id="text6028" x="160.025" y="244.528" fill="#000" fill-opacity="1" stroke="none" font-family="FreeSans" font-size="16" font-stretch="normal" font-style="normal" font-variant="normal" font-weight="600" letter-spacing="0" text-anchor="middle" word-spacing="0" xml:space="preserve" style="text-align:center;line-height:125%;-inkscape-font-specification:FreeSans Semi-Bold"><tspan id="tspan6030" x="160.025" y="244.528">MQ</tspan></text></g><text id="text10734" x="93.204" y="378.747" fill="#000" fill-opacity="1" stroke="none" font-family="Sans" font-size="14" font-style="normal" font-weight="normal" letter-spacing="0" word-spacing="0" xml:space="preserve" style="line-height:125%"><tspan id="tspan10736" x="93.204" y="378.747">amqp</tspan></text><text id="text10738" x="138.154" y="390.747" fill="#000" fill-opacity="1" stroke="none" font-family="Sans" font-size="14" font-style="normal" font-weight="normal" letter-spacing="0" word-spacing="0" xml:space="preserve" style="line-height:125%"><tspan id="tspan10740" x="138.154" y="390.747">simple</tspan></text><text id="text10742" x="189.394" y="378.747" fill="#000" fill-opacity="1" stroke="none" font-family="Sans" font-size="14" font-style="normal" font-weight="normal" letter-spacing="0" word-spacing="0" xml:space="preserve" style="line-height:125%"><tspan id="tspan10744" x="189.394" y="378.747">Ømq</tspan></text></g><g id="g11087" transform="translate(0,-38)"><path id="path11011" fill="none" stroke="#000" stroke-linecap="butt" stroke-linejoin="miter" stroke-opacity="1" stroke-width="1" d="M 310.87913,340.91996 285.5571,368.69251"/><path id="path11013" fill="none" stroke="#000" stroke-linecap="butt" stroke-linejoin="miter" stroke-opacity="1" stroke-width="1" d="m 337.018,343.37048 0,33.08963"/><path id="path11015" fill="none" stroke="#000" stroke-linecap="butt" stroke-linejoin="miter" stroke-opacity="1" stroke-width="1" d="m 360.70635,341.7368 37.57462,26.13887"/><g id="g8914" transform="translate(79.099825,89.95732)"><path id="path8821" fill="#000" fill-opacity="1" stroke="none" d="m 299.48543,253.47049 c 0,0.55369 -0.2945,1.00671 -0.65444,1.00671 h -77.87941 c -0.35995,0 -0.65445,-0.45302 -0.65445,-1.00671 v -26.20988 c 0,-0.55369 0.2945,-1.00671 0.65445,-1.00671 h 77.87941 c 0.35994,0 0.65444,0.45302 0.65444,1.00671 v 26.20988 z" filter="url(#filter6048)" opacity=".5"/><path id="path8823" fill="url(#linearGradient11119)" fill-opacity="1" stroke="#303539" stroke-width=".812" d="m 297.48543,251.47049 c 0,0.55369 -0.2945,1.00671 -0.65444,1.00671 h -77.87941 c -0.35995,0 -0.65445,-0.45302 -0.65445,-1.00671 v -26.20988 c 0,-0.55369 0.2945,-1.00671 0.65445,-1.00671 h 77.87941 c 0.35994,0 0.65444,0.45302 0.65444,1.00671 v 26.20988 z"/><text font-stretch="normal" style="text-align:center;line-height:125%;-inkscape-font-specification:FreeSans Semi-Bold" id="text8825" x="257.736" y="244.11" fill="#000" fill-opacity="1" stroke="none" font-family="FreeSans" font-size="16" font-style="normal" font-variant="normal" font-weight="600" letter-spacing="0" text-anchor="middle" word-spacing="0" xml:space="preserve"><tspan id="tspan8827" x="257.736" y="244.11">DB</tspan></text></g><text id="text10770" x="283.098" y="378.747" fill="#000" fill-opacity="1" stroke="none" font-family="Sans" font-size="14" font-style="normal" font-weight="normal" letter-spacing="0" text-anchor="middle" word-spacing="0" xml:space="preserve" style="text-align:center;line-height:125%"><tspan id="tspan10772" x="283.098" y="378.747">mysql</tspan></text><text id="text10774" x="339.896" y="388.747" fill="#000" fill-opacity="1" stroke="none" font-family="Sans" font-size="14" font-style="normal" font-weight="normal" letter-spacing="0" word-spacing="0" xml:space="preserve" style="line-height:125%"><tspan style="text-align:center" id="tspan10776" x="339.896" y="388.747" text-anchor="middle">postgres</tspan></text><text id="text10778" x="395.855" y="378.747" fill="#000" fill-opacity="1" stroke="none" font-family="Sans" font-size="14" font-style="normal" font-weight="normal" letter-spacing="0" text-anchor="middle" word-spacing="0" xml:space="preserve" style="text-align:center;line-height:125%"><tspan id="tspan10780" x="395.855" y="378.747">sqlite</tspan></text></g><path id="path11144" fill="none" stroke="#000" stroke-linecap="butt" stroke-linejoin="miter" stroke-opacity="1" stroke-width="1" marker-end="url(#Arrow1Mend)" d="m 280.76334,171.06682 c 8.20211,20.68069 5.31229,38.0901 -0.15446,57.72032"/><g id="g9043" transform="translate(-10.3127,17.408446)"><path id="path8930-4" fill="#000" fill-opacity="1" stroke="none" d="m 300.95005,155.96907 c 0,0.55369 -0.2945,1.00671 -0.65444,1.00671 H 222.4162 c -0.35995,0 -0.65445,-0.45302 -0.65445,-1.00671 v -26.20988 c 0,-0.55368 0.2945,-1.0067 0.65445,-1.0067 h 77.87941 c 0.35994,0 0.65444,0.45302 0.65444,1.0067 v 26.20988 z" filter="url(#filter6048-3)" opacity=".5"/><path id="path8932-4" fill="url(#linearGradient11142)" fill-opacity="1" stroke="#303539" stroke-width=".812" d="m 298.95005,153.96907 c 0,0.55369 -0.2945,1.00671 -0.65444,1.00671 H 220.4162 c -0.35995,0 -0.65445,-0.45302 -0.65445,-1.00671 V 127.7592 c 0,-0.55369 0.2945,-1.00671 0.65445,-1.00671 h 77.87941 c 0.35994,0 0.65444,0.45302 0.65444,1.00671 v 26.20987 z"/><text id="text8934-7" x="259.201" y="146.608" fill="#000" fill-opacity="1" stroke="none" font-family="FreeSans" font-size="16" font-stretch="normal" font-style="normal" font-variant="normal" font-weight="600" letter-spacing="0" text-anchor="middle" word-spacing="0" xml:space="preserve" style="text-align:center;line-height:125%;-inkscape-font-specification:FreeSans Semi-Bold"><tspan id="tspan8936-7" x="259.201" y="146.608">WWW</tspan></text></g></g></svg>