<svg xmlns="http://www.w3.org/2000/svg" xmlns:illustrator="http://ns.adobe.com/illustrator/1.0/" xmlns:osb="http://www.openswatchbook.org/uri/2009/osb" xmlns:pdf="http://ns.adobe.com/pdf/1.3/" xmlns:stDim="http://ns.adobe.com/xap/1.0/sType/Dimensions#" xmlns:stEvt="http://ns.adobe.com/xap/1.0/sType/ResourceEvent#" xmlns:stFnt="http://ns.adobe.com/xap/1.0/sType/Font#" xmlns:stRef="http://ns.adobe.com/xap/1.0/sType/ResourceRef#" xmlns:svg="http://www.w3.org/2000/svg" xmlns:x="adobe:ns:meta/" xmlns:xlink="http://www.w3.org/1999/xlink" xmlns:xmp="http://ns.adobe.com/xap/1.0/" xmlns:xmpG="http://ns.adobe.com/xap/1.0/g/" xmlns:xmpGImg="http://ns.adobe.com/xap/1.0/g/img/" xmlns:xmpMM="http://ns.adobe.com/xap/1.0/mm/" xmlns:xmpTPg="http://ns.adobe.com/xap/1.0/t/pg/" id="Layer_1" width="549.258" height="309.007" x="0" y="0" enable-background="new 0 0 800 600" version="1.1" viewBox="0 0 549.258 309.007" xml:space="preserve"><defs id="defs8167"><linearGradient id="linearGradient5587" osb:paint="solid"><stop id="stop5589" offset="0" stop-color="#d9d5d2" stop-opacity="1"/></linearGradient><filter id="filter5617" color-interpolation-filters="sRGB"><feGaussianBlur id="feGaussianBlur5619" stdDeviation="1.118"/></filter><linearGradient id="linearGradient5670" x1="590.906" x2="712.906" y1="62.924" y2="62.924" gradientTransform="translate(-371.15077,-190.20171)" gradientUnits="userSpaceOnUse" xlink:href="#linearGradient5587"/><linearGradient id="linearGradient5672" x1="590.906" x2="712.906" y1="62.924" y2="62.924" gradientTransform="translate(-371.15077,-190.20171)" gradientUnits="userSpaceOnUse" xlink:href="#linearGradient5587"/><filter id="filter5676" color-interpolation-filters="sRGB"><feGaussianBlur id="feGaussianBlur5678" stdDeviation="1.207"/></filter><filter id="filter5701" color-interpolation-filters="sRGB"><feGaussianBlur id="feGaussianBlur5703" stdDeviation=".489"/></filter><linearGradient id="linearGradient5824" x1="590.906" x2="712.906" y1="62.924" y2="62.924" gradientTransform="translate(-371.15077,-190.20171)" gradientUnits="userSpaceOnUse" xlink:href="#linearGradient5587"/><linearGradient id="linearGradient5838" x1="590.906" x2="712.906" y1="62.924" y2="62.924" gradientTransform="translate(-371.15077,-190.20171)" gradientUnits="userSpaceOnUse" xlink:href="#linearGradient5587"/><filter id="filter5880" color-interpolation-filters="sRGB"><feGaussianBlur id="feGaussianBlur5882" stdDeviation=".583"/></filter><filter id="filter6048" color-interpolation-filters="sRGB"><feGaussianBlur id="feGaussianBlur6050" stdDeviation=".806"/></filter><linearGradient id="linearGradient6058" x1="590.906" x2="712.906" y1="62.924" y2="62.924" gradientTransform="matrix(0.65444882,0,0,1.0067169,-166.88393,-162.62436)" gradientUnits="userSpaceOnUse" xlink:href="#linearGradient5587"/><linearGradient id="linearGradient6070" x1="590.906" x2="712.906" y1="62.924" y2="62.924" gradientTransform="matrix(0.65444882,0,0,1.0067169,-166.88393,-162.62436)" gradientUnits="userSpaceOnUse" xlink:href="#linearGradient5587"/><linearGradient id="linearGradient6082" x1="590.906" x2="712.906" y1="62.924" y2="62.924" gradientTransform="matrix(0.65444882,0,0,1.0067169,-166.88393,-162.62436)" gradientUnits="userSpaceOnUse" xlink:href="#linearGradient5587"/></defs><metadata id="metadata6997"><?xpacket begin="" id="W5M0MpCehiHzreSzNTczkc9d"?><x:xmpmeta x:xmptk="Adobe XMP Core 4.2.2-c063 53.351735, 2008/07/22-18:11:12"><metadata id="metadata8169"/></x:xmpmeta><?xpacket end="w"?></metadata><g id="g5874" transform="translate(68.057628,13.269438)"><line id="line5870" x1="404.743" x2="404.743" y1="95.78" y2="48.439" fill="none" stroke="#303539" stroke-dasharray="none" stroke-miterlimit="4" stroke-width="2.494"/><polygon id="polygon5872" fill="#303539" points="417.754 240.128 421.993 235.888 421.993 239.485 417.754 243.725 413.513 239.485 413.513 235.888" transform="translate(-13.010685,-145.51287)"/></g><line id="line4659" x1="231.91" x2="207.702" y1="45.839" y2="21.631" fill="none" stroke="#303539" stroke-width="2.5"/><g id="g4677" transform="translate(68.853203,12.003986)"><line id="line4673" x1="163.057" x2="138.849" y1="50.892" y2="75.1" fill="none" stroke="#303539" stroke-width="2.5"/><polygon id="polygon4675" fill="#303539" points="335.688 107.071 335.687 101.074 338.231 103.618 338.231 109.614 332.234 109.614 329.69 107.071" transform="matrix(1,0,0,-1,-173.04701,158.37858)"/></g><line id="line7163" x1="484.143" x2="484.143" y1="238.674" y2="129.019" fill="none" stroke="#303539" stroke-dasharray="none" stroke-miterlimit="4" stroke-width="2.5"/><polygon id="polygon7167" fill="#303539" points="413.513 239.485 413.513 235.888 417.754 240.128 421.993 235.888 421.993 239.485 417.754 243.725" transform="translate(66.389013,-1.730562)"/><g id="g5884" transform="translate(68.853203,13.269438)"><ellipse id="ellipse5878" cx="417.754" cy="185" fill="#000" fill-opacity="1" stroke="none" d="m 437.92,185 c 0,10.34098 -9.02863,18.724 -20.166,18.724 -11.13738,0 -20.166,-8.38302 -20.166,-18.724 0,-10.34098 9.02862,-18.724 20.166,-18.724 11.13737,0 20.166,8.38302 20.166,18.724 z" filter="url(#filter5880)" opacity=".5" rx="20.166" ry="18.724" transform="translate(-0.46419049,-13)"/><ellipse id="ellipse7179" cx="417.754" cy="185" fill="#fff" fill-opacity="1" stroke="#303539" stroke-width=".5" d="m 437.92,185 c 0,10.34098 -9.02863,18.724 -20.166,18.724 -11.13738,0 -20.166,-8.38302 -20.166,-18.724 0,-10.34098 9.02862,-18.724 20.166,-18.724 11.13737,0 20.166,8.38302 20.166,18.724 z" rx="20.166" ry="18.724" transform="translate(-2.4641905,-15)"/><path id="path7183" fill="#d93d04" d="m 405.53781,157.913 c 0.484,-0.121 1.044,-0.197 1.694,-0.197 0.923,0 1.708,0.197 2.253,0.711 0.438,0.408 0.666,1.013 0.666,1.739 0,1.043 -0.575,1.86 -1.573,2.253 v 0.045 c 1.179,0.318 1.89,1.271 1.89,2.601 0,0.847 -0.271,1.527 -0.726,2.026 -0.574,0.65 -1.526,0.922 -2.691,0.922 -0.741,0 -1.194,-0.045 -1.513,-0.106 v -9.994 z m 1.15,4.173 h 0.529 c 0.952,0 1.769,-0.726 1.769,-1.799 0,-0.938 -0.438,-1.664 -1.679,-1.664 -0.271,0 -0.484,0.03 -0.619,0.076 v 3.387 z m 0,4.945 c 0.135,0.03 0.332,0.061 0.589,0.061 1.194,0 1.981,-0.711 1.981,-2.026 0,-1.406 -0.969,-2.072 -2.057,-2.087 h -0.514 v 4.052 z"/><path id="path7185" fill="#d93d04" d="m 412.27881,161.155 v 4.559 c 0,1.221 0.413,1.634 0.918,1.634 0.575,0 0.948,-0.444 0.948,-1.634 v -4.559 h 0.776 v 4.438 c 0,1.765 -0.726,2.441 -1.735,2.441 -1.018,0 -1.684,-0.666 -1.684,-2.35 v -4.528 h 0.777 z"/><path id="path7187" fill="#d93d04" d="m 416.89681,161.155 v 6.798 h -0.777 v -6.798 h 0.777 z"/><path id="path7189" fill="#d93d04" d="m 418.12581,161.155 h 0.777 v 6.142 h 1.906 v 0.656 h -2.684 v -6.798 z"/><path id="path7191" fill="#d93d04" d="m 421.60381,161.256 c 0.293,-0.091 0.656,-0.131 1.039,-0.131 0.717,0 1.221,0.182 1.594,0.514 0.524,0.454 0.918,1.332 0.918,2.753 0,1.553 -0.383,2.401 -0.816,2.875 -0.444,0.495 -1.09,0.727 -1.877,0.727 -0.313,0 -0.635,-0.021 -0.857,-0.071 v -6.667 z m 0.768,6.072 c 0.11,0.021 0.221,0.021 0.292,0.021 0.857,0 1.685,-0.625 1.685,-2.935 0,-1.715 -0.525,-2.653 -1.613,-2.653 -0.121,0 -0.264,0.01 -0.363,0.041 v 5.526 z"/><path id="path7193" fill="#d93d04" d="m 401.14881,169.34 c 0.484,-0.136 1.09,-0.197 1.664,-0.197 1.014,0 1.77,0.212 2.299,0.726 0.498,0.514 0.71,1.194 0.71,1.996 0,1.3 -0.604,2.147 -1.633,2.631 v 0.03 c 0.756,0.227 1.149,0.953 1.36,2.283 0.242,1.391 0.439,2.253 0.59,2.571 h -1.18 c -0.15,-0.302 -0.348,-1.27 -0.544,-2.51 -0.227,-1.406 -0.665,-1.92 -1.663,-1.92 h -0.453 v 4.431 h -1.15 V 169.34 z m 1.151,4.702 h 0.498 c 1.104,0 1.846,-0.816 1.846,-2.042 0,-1.179 -0.484,-1.905 -1.725,-1.92 -0.242,0 -0.469,0.015 -0.619,0.061 v 3.901 z"/><path id="path7195" fill="#d93d04" d="m 409.49881,176.153 h -1.704 v 2.552 h 1.937 v 0.676 h -2.713 v -6.798 h 2.592 v 0.676 h -1.815 v 2.239 h 1.704 v 0.655 z"/><path id="path7197" fill="#d93d04" d="m 414.02581,180.298 c -0.514,-0.212 -1.199,-0.535 -1.563,-0.736 -0.111,-0.061 -0.202,-0.101 -0.252,-0.101 -1.12,0 -1.906,-1.12 -1.906,-3.49 0,-2.269 0.816,-3.47 2.007,-3.47 1.159,0 1.846,1.271 1.846,3.43 0,1.855 -0.435,2.875 -1.16,3.217 v 0.03 c 0.454,0.202 0.918,0.353 1.321,0.494 l -0.293,0.626 z m -0.676,-4.337 c 0,-1.301 -0.231,-2.774 -1.099,-2.774 -0.878,0 -1.14,1.483 -1.14,2.784 -0.01,1.332 0.252,2.804 1.149,2.804 0.859,0 1.09,-1.472 1.09,-2.814 z"/><path id="path7199" fill="#d93d04" d="m 415.84981,172.583 v 4.559 c 0,1.221 0.414,1.634 0.918,1.634 0.574,0 0.948,-0.444 0.948,-1.634 v -4.559 h 0.776 v 4.438 c 0,1.765 -0.727,2.441 -1.734,2.441 -1.02,0 -1.685,-0.666 -1.685,-2.35 v -4.528 h 0.777 z"/><path id="path7201" fill="#d93d04" d="m 422.17281,176.153 h -1.704 v 2.552 h 1.937 v 0.676 h -2.713 v -6.798 h 2.592 v 0.676 h -1.815 v 2.239 h 1.704 v 0.655 z"/><path id="path7203" fill="#d93d04" d="m 423.10981,178.483 c 0.221,0.151 0.635,0.272 0.968,0.272 0.716,0 1.14,-0.464 1.14,-1.149 0,-0.625 -0.363,-1.009 -0.898,-1.412 -0.544,-0.374 -1.28,-1.009 -1.28,-1.886 0,-1.029 0.716,-1.785 1.796,-1.785 0.423,0 0.786,0.131 0.947,0.252 l -0.182,0.666 c -0.172,-0.121 -0.453,-0.232 -0.807,-0.232 -0.676,0 -0.988,0.504 -0.988,0.968 0,0.676 0.354,0.938 0.998,1.402 0.817,0.575 1.181,1.2 1.181,1.957 0,1.17 -0.817,1.906 -1.906,1.906 -0.464,0 -0.948,-0.151 -1.14,-0.292 l 0.171,-0.667 z"/><path id="path7205" fill="#d93d04" d="m 427.69781,173.278 h -1.241 v -0.696 h 3.258 v 0.696 h -1.24 v 6.102 h -0.776 v -6.102 z"/></g><line id="line7211" x1="271.143" x2="271.143" y1="243.943" y2="134.495" fill="none" stroke="#303539" stroke-dasharray="none" stroke-miterlimit="4" stroke-width="2.5"/><polygon id="polygon7215" fill="#303539" points="200.513 244.649 200.513 241.052 204.754 245.292 208.993 241.052 208.993 244.649 204.754 248.889" transform="translate(66.389013,-1.730562)"/><line id="line7259" x1="224.143" x2="224.143" y1="244.15" y2="157.916" fill="none" stroke="#303539" stroke-dasharray="none" stroke-miterlimit="4" stroke-width="2.5"/><polygon id="polygon7261" fill="#303539" points="153.513 244.649 153.513 241.052 157.754 245.292 161.993 241.052 161.993 244.649 157.754 248.889" transform="translate(66.389013,-1.730562)"/><line id="line7305" x1="353.645" x2="353.645" y1="251.427" y2="122.096" fill="none" stroke="#303539" stroke-dasharray="none" stroke-miterlimit="4" stroke-width="2.5"/><polygon id="polygon7309" fill="#303539" points="283.016 252.268 283.016 248.671 287.256 252.912 291.496 248.671 291.496 252.268 287.256 256.508" transform="translate(66.389013,-1.730562)"/><line id="line7353" x1="400.889" x2="400.889" y1="251.51" y2="128.907" fill="none" stroke="#303539" stroke-dasharray="none" stroke-miterlimit="4" stroke-width="2.5"/><polygon id="polygon7357" fill="#303539" points="330.26 252.268 330.26 248.671 334.5 252.912 338.74 248.671 338.74 252.268 334.5 256.508" transform="translate(66.389013,-1.730562)"/><line id="line7363" x1="444.889" x2="444.889" y1="157.054" y2="135.523" fill="none" stroke="#303539" stroke-dasharray="none" stroke-miterlimit="4" stroke-width="2.5"/><line id="line7409" x1="378.672" x2="257.85" y1="54.269" y2="54.269" fill="none" stroke="#303539" stroke-width="2.199"/><line id="line7479" x1="378.389" x2="378.389" y1="85.658" y2="53.198" fill="none" stroke="#303539" stroke-dasharray="none" stroke-miterlimit="4" stroke-width="2.494"/><g id="g5705" transform="translate(68.853203,13.269438)"><ellipse id="ellipse5699" cx="187.658" cy="56.098" fill="#000" fill-opacity="1" stroke="none" d="m 207.56301,56.098 c 0,6.99579 -8.91178,12.666999 -19.90501,12.666999 -10.99322,0 -19.905,-5.671209 -19.905,-12.666999 0,-6.995791 8.91178,-12.667 19.905,-12.667 10.99323,0 19.90501,5.671209 19.90501,12.667 z" filter="url(#filter5701)" opacity=".5" rx="19.905" ry="12.667" transform="translate(-0.46419049,-13)"/><ellipse id="ellipse7491" cx="187.658" cy="56.098" fill="#fff" fill-opacity="1" stroke="#303539" stroke-width=".5" d="m 207.56301,56.098 c 0,6.99579 -8.91178,12.666999 -19.90501,12.666999 -10.99322,0 -19.905,-5.671209 -19.905,-12.666999 0,-6.995791 8.91178,-12.667 19.905,-12.667 10.99323,0 19.90501,5.671209 19.90501,12.667 z" rx="19.905" ry="12.667" transform="translate(-2.4641905,-15)"/><path id="path7495" fill="#d93d04" d="m 176.09981,45.267 c -0.304,0.159 -0.796,0.261 -1.405,0.261 -1.897,0 -3.272,-1.535 -3.272,-4.851 0,-3.852 1.912,-5.083 3.461,-5.083 0.579,0 1.014,0.116 1.202,0.246 l -0.246,0.941 c -0.231,-0.102 -0.463,-0.203 -0.97,-0.203 -1.042,0 -2.273,1.014 -2.273,3.997 0,2.983 1.101,3.968 2.303,3.968 0.42,0 0.782,-0.101 1.013,-0.203 l 0.187,0.927 z"/><path id="path7497" fill="#d93d04" d="m 177.84681,38.118 v 3.14 h 2.053 v -3.14 h 0.837 v 7.323 h -0.837 v -3.422 h -2.053 v 3.422 h -0.836 v -7.323 h 0.836 z"/><path id="path7499" fill="#d93d04" d="m 182.91681,43.246 -0.478,2.195 h -0.814 l 1.673,-7.323 h 0.923 l 1.63,7.323 h -0.826 l -0.478,-2.195 h -1.63 z m 1.511,-0.673 -0.38,-1.858 c -0.108,-0.521 -0.207,-1.13 -0.293,-1.673 h -0.032 c -0.087,0.554 -0.196,1.184 -0.304,1.673 l -0.38,1.858 h 1.389 z"/><path id="path7501" fill="#d93d04" d="m 186.77081,45.441 v -7.323 h 0.782 l 1.347,3.434 c 0.304,0.793 0.685,1.76 0.935,2.553 h 0.021 c -0.065,-1.151 -0.098,-2.097 -0.098,-3.368 v -2.619 h 0.75 v 7.323 h -0.782 l -1.391,-3.52 c -0.304,-0.739 -0.619,-1.575 -0.88,-2.488 h -0.022 c 0.065,0.978 0.087,1.912 0.087,3.477 v 2.531 h -0.749 z"/><path id="path7503" fill="#d93d04" d="m 195.40481,45.256 c -0.304,0.13 -0.837,0.25 -1.293,0.25 -0.641,0 -1.238,-0.174 -1.728,-0.706 -0.532,-0.565 -0.891,-1.575 -0.88,-2.922 0.011,-2.857 1.467,-3.824 2.76,-3.824 0.456,0 0.814,0.087 1.032,0.207 l -0.185,0.717 c -0.196,-0.098 -0.445,-0.174 -0.836,-0.174 -0.913,0 -1.901,0.728 -1.901,2.999 0,2.26 0.858,2.988 1.738,2.988 0.282,0 0.445,-0.043 0.511,-0.087 v -2.39 h -0.945 v -0.695 h 1.728 v 3.637 z"/><path id="path7505" fill="#d93d04" d="m 199.21481,41.964 h -1.836 v 2.749 h 2.086 v 0.728 h -2.922 v -7.323 h 2.792 v 0.728 h -1.956 v 2.412 h 1.836 v 0.706 z"/></g><line id="line7645" x1="354.285" x2="378.493" y1="105.755" y2="81.547" fill="none" stroke="#303539" stroke-width="2.5"/><polygon id="polygon7647" fill="#303539" points="285.769 103.617 288.312 101.073 288.312 107.07 294.309 107.069 291.765 109.613 285.769 109.613" transform="translate(66.389013,-1.730562)"/><line id="line7653" x1="402.493" x2="378.285" y1="105.756" y2="81.548" fill="none" stroke="#303539" stroke-width="2.5"/><polygon id="polygon7655" fill="#303539" points="332.234 109.614 329.69 107.071 335.688 107.071 335.687 101.074 338.231 103.618 338.231 109.614" transform="translate(66.389013,-1.730562)"/><line id="line7657" x1="219.389" x2="275.389" y1="271.769" y2="271.769" fill="none" stroke="#303539" stroke-width="2"/><line id="line7659" x1="219.389" x2="275.389" y1="267.769" y2="267.769" fill="none" stroke="#303539" stroke-width="2"/><line id="line7661" x1="219.389" x2="275.389" y1="263.769" y2="263.769" fill="none" stroke="#303539" stroke-width="2"/><line id="line7663" x1="219.389" x2="275.389" y1="259.769" y2="259.769" fill="none" stroke="#303539" stroke-width="2"/><line id="line7665" x1="219.389" x2="275.389" y1="255.769" y2="255.769" fill="none" stroke="#303539" stroke-width="2"/><line id="line7667" x1="219.389" x2="275.389" y1="251.769" y2="251.769" fill="none" stroke="#303539" stroke-width="2"/><path id="path7671" fill="#d93d04" d="m 239.36401,248.90844 c -0.918,-0.378 -2.143,-0.954 -2.791,-1.314 -0.198,-0.108 -0.36,-0.18 -0.45,-0.18 -1.999,0 -3.403,-1.999 -3.403,-6.23 0,-4.051 1.458,-6.193 3.583,-6.193 2.071,0 3.295,2.269 3.295,6.121 0,3.313 -0.774,5.132 -2.07,5.744 v 0.054 c 0.81,0.36 1.638,0.631 2.358,0.883 l -0.522,1.115 z m -1.207,-7.743 c 0,-2.323 -0.414,-4.952 -1.962,-4.952 -1.566,0 -2.035,2.647 -2.035,4.97 -0.018,2.377 0.45,5.006 2.053,5.006 1.53,0 1.944,-2.629 1.944,-5.024 z"/><path id="path7673" fill="#d93d04" d="m 241.80201,239.18544 v 5.422 c 0,1.451 0.492,1.942 1.092,1.942 0.684,0 1.127,-0.527 1.127,-1.942 v -5.422 h 0.923 v 5.277 c 0,2.099 -0.864,2.902 -2.063,2.902 -1.211,0 -2.003,-0.791 -2.003,-2.794 v -5.386 h 0.924 z"/><path id="path7675" fill="#d93d04" d="m 249.32501,243.43144 h -2.027 v 3.034 h 2.303 v 0.804 h -3.226 v -8.084 h 3.082 v 0.804 h -2.159 v 2.663 h 2.027 v 0.779 z"/><path id="path7677" fill="#d93d04" d="m 251.53501,239.18544 v 5.422 c 0,1.451 0.492,1.942 1.091,1.942 0.684,0 1.127,-0.527 1.127,-1.942 v -5.422 h 0.923 v 5.277 c 0,2.099 -0.864,2.902 -2.063,2.902 -1.211,0 -2.003,-0.791 -2.003,-2.794 v -5.386 h 0.925 z"/><path id="path7679" fill="#d93d04" d="m 259.05701,243.43144 h -2.027 v 3.034 h 2.303 v 0.804 h -3.226 v -8.084 h 3.082 v 0.804 h -2.159 v 2.663 h 2.027 v 0.779 z"/><line id="line7717" x1="349.389" x2="405.389" y1="271.769" y2="271.769" fill="none" stroke="#303539" stroke-width="2"/><line id="line7719" x1="349.389" x2="405.389" y1="267.769" y2="267.769" fill="none" stroke="#303539" stroke-width="2"/><line id="line7721" x1="349.389" x2="405.389" y1="263.769" y2="263.769" fill="none" stroke="#303539" stroke-width="2"/><line id="line7723" x1="349.389" x2="405.389" y1="259.769" y2="259.769" fill="none" stroke="#303539" stroke-width="2"/><path id="path7727" fill="#d93d04" d="m 369.36401,256.90844 c -0.918,-0.378 -2.143,-0.954 -2.791,-1.314 -0.198,-0.108 -0.36,-0.18 -0.45,-0.18 -1.999,0 -3.403,-1.999 -3.403,-6.23 0,-4.051 1.458,-6.193 3.583,-6.193 2.071,0 3.295,2.269 3.295,6.121 0,3.313 -0.774,5.132 -2.07,5.744 v 0.054 c 0.81,0.36 1.638,0.631 2.358,0.883 l -0.522,1.115 z m -1.207,-7.743 c 0,-2.323 -0.414,-4.952 -1.962,-4.952 -1.566,0 -2.035,2.647 -2.035,4.97 -0.018,2.377 0.45,5.006 2.053,5.006 1.53,0 1.944,-2.629 1.944,-5.024 z"/><path id="path7729" fill="#d93d04" d="m 371.80201,247.18544 v 5.422 c 0,1.451 0.492,1.942 1.092,1.942 0.684,0 1.127,-0.527 1.127,-1.942 v -5.422 h 0.923 v 5.277 c 0,2.099 -0.864,2.902 -2.063,2.902 -1.211,0 -2.003,-0.791 -2.003,-2.794 v -5.386 h 0.924 z"/><path id="path7731" fill="#d93d04" d="m 379.32501,251.43144 h -2.027 v 3.034 h 2.303 v 0.804 h -3.226 v -8.084 h 3.082 v 0.804 h -2.159 v 2.663 h 2.027 v 0.779 z"/><path id="path7733" fill="#d93d04" d="m 381.53501,247.18544 v 5.422 c 0,1.451 0.492,1.942 1.091,1.942 0.684,0 1.127,-0.527 1.127,-1.942 v -5.422 h 0.923 v 5.277 c 0,2.099 -0.864,2.902 -2.063,2.902 -1.211,0 -2.003,-0.791 -2.003,-2.794 v -5.386 h 0.925 z"/><path id="path7735" fill="#d93d04" d="m 389.05701,251.43144 h -2.027 v 3.034 h 2.303 v 0.804 h -3.226 v -8.084 h 3.082 v 0.804 h -2.159 v 2.663 h 2.027 v 0.779 z"/><line id="line7773" x1="479.389" x2="535.389" y1="271.769" y2="271.769" fill="none" stroke="#303539" stroke-width="2"/><line id="line7775" x1="479.389" x2="535.389" y1="267.769" y2="267.769" fill="none" stroke="#303539" stroke-width="2" opacity=".97"/><line id="line7777" x1="479.389" x2="535.389" y1="263.769" y2="263.769" fill="none" stroke="#303539" stroke-width="2"/><line id="line7779" x1="479.389" x2="535.389" y1="259.769" y2="259.769" fill="none" stroke="#303539" stroke-width="2"/><line id="line7781" x1="479.389" x2="535.389" y1="255.769" y2="255.769" fill="none" stroke="#303539" stroke-width="2"/><line id="line7783" x1="479.389" x2="535.389" y1="251.769" y2="251.769" fill="none" stroke="#303539" stroke-width="2"/><line id="line7785" x1="479.389" x2="535.389" y1="247.769" y2="247.769" fill="none" stroke="#303539" stroke-width="2"/><path id="path7789" fill="#d93d04" d="m 499.36401,244.90844 c -0.918,-0.378 -2.143,-0.954 -2.791,-1.314 -0.197,-0.108 -0.359,-0.18 -0.45,-0.18 -1.999,0 -3.403,-1.999 -3.403,-6.23 0,-4.051 1.459,-6.193 3.584,-6.193 2.07,0 3.295,2.269 3.295,6.121 0,3.313 -0.774,5.132 -2.07,5.744 v 0.054 c 0.81,0.36 1.638,0.631 2.357,0.883 l -0.522,1.115 z m -1.207,-7.743 c 0,-2.323 -0.414,-4.952 -1.962,-4.952 -1.566,0 -2.034,2.647 -2.034,4.97 -0.019,2.377 0.449,5.006 2.053,5.006 1.529,0 1.943,-2.629 1.943,-5.024 z"/><path id="path7791" fill="#d93d04" d="m 501.80201,235.18544 v 5.422 c 0,1.451 0.492,1.942 1.092,1.942 0.684,0 1.128,-0.527 1.128,-1.942 v -5.422 h 0.923 v 5.277 c 0,2.099 -0.864,2.902 -2.063,2.902 -1.211,0 -2.002,-0.791 -2.002,-2.794 v -5.386 h 0.922 z"/><path id="path7793" fill="#d93d04" d="m 509.32501,239.43144 h -2.026 v 3.034 h 2.303 v 0.804 h -3.226 v -8.084 h 3.082 v 0.804 h -2.159 v 2.663 h 2.026 v 0.779 z"/><path id="path7795" fill="#d93d04" d="m 511.53501,235.18544 v 5.422 c 0,1.451 0.491,1.942 1.091,1.942 0.684,0 1.128,-0.527 1.128,-1.942 v -5.422 h 0.923 v 5.277 c 0,2.099 -0.863,2.902 -2.063,2.902 -1.211,0 -2.003,-0.791 -2.003,-2.794 v -5.386 h 0.924 z"/><path id="path7797" fill="#d93d04" d="m 519.05701,239.43144 h -2.027 v 3.034 h 2.303 v 0.804 h -3.226 v -8.084 h 3.082 v 0.804 h -2.159 v 2.663 h 2.027 v 0.779 z"/><line id="line7861" x1="446.215" x2="222.983" y1="157.916" y2="157.916" fill="none" stroke="#303539" stroke-dasharray="none" stroke-miterlimit="4" stroke-width="2.5"/><g id="g5680" transform="translate(-43.260197,119.83877)"><circle id="circle5674" cx="110.227" cy="56.945" r="38.569" fill="#000" fill-opacity="1" stroke="none" d="m 148.796,56.945 c 0,21.30107 -17.26793,38.569 -38.569,38.569 -21.301073,0 -38.569003,-17.26793 -38.569003,-38.569 0,-21.301071 17.26793,-38.569001 38.569003,-38.569001 21.30107,0 38.569,17.26793 38.569,38.569001 z" filter="url(#filter5676)" opacity=".5" transform="matrix(1.0064674,0,0,0.55972029,-25.945164,-127.37363)"/><polygon id="polygon7411" fill="#303539" points="139.826 45.27 155.802 54.909 155.802 57.13 139.826 66.769 120.395 66.769 131.145 56.02 120.395 45.27" transform="matrix(2.0733788,0,0,0.68481863,-193.65979,-135.86356)"/><circle id="circle7469" cx="110.227" cy="56.945" r="38.569" fill="#d9d5d2" fill-opacity="1" stroke="#303539" stroke-width="2" d="m 148.796,56.945 c 0,21.30107 -17.26793,38.569 -38.569,38.569 -21.301073,0 -38.569003,-17.26793 -38.569003,-38.569 0,-21.301071 17.26793,-38.569001 38.569003,-38.569001 21.30107,0 38.569,17.26793 38.569,38.569001 z" transform="matrix(1.0064674,0,0,0.55972029,-27.945164,-129.37363)"/><text id="text4765" x="83.16" y="-91.756" fill="#000" fill-opacity="1" stroke="none" font-family="FreeSans" font-size="16" font-stretch="normal" font-style="normal" font-variant="normal" font-weight="600" letter-spacing="0" text-anchor="middle" word-spacing="0" xml:space="preserve" style="text-align:center;line-height:125%;-inkscape-font-specification:FreeSans Semi-Bold"><tspan id="tspan4767" x="83.16" y="-91.756">VCS</tspan></text></g><g id="g4681" transform="translate(68.853203,13.269438)"><polygon id="polygon4661" fill="#303539" points="335.688 107.071 335.687 101.074 338.231 103.618 338.231 109.614 332.234 109.614 329.69 107.071" transform="translate(-173.04701,-75.651675)"/></g><g id="g5652" transform="translate(-133.20541,212.85592)"><path id="path5593" fill="#000" fill-opacity="1" stroke="#303539" stroke-dasharray="none" stroke-miterlimit="4" stroke-width="0" d="m 343.25511,-112.26053 c 0,0.55 -0.45,1 -1,1 h -119 c -0.55,0 -1,-0.45 -1,-1 v -26.035 c 0,-0.55 0.45,-1 1,-1 h 119 c 0.55,0 1,0.45 1,1 v 26.035 z" filter="url(#filter5617)" opacity=".5"/><path id="path5569" fill="url(#linearGradient5672)" fill-opacity="1" stroke="#303539" d="m 341.25511,-114.26053 c 0,0.55 -0.45,1 -1,1 h -119 c -0.55,0 -1,-0.45 -1,-1 v -26.035 c 0,-0.55 0.45,-1 1,-1 h 119 c 0.55,0 1,0.45 1,1 v 26.035 z"/><text id="text4602-5" x="280.747" y="-123.094" fill="#000" fill-opacity="1" stroke="none" font-family="FreeSans" font-size="16" font-stretch="normal" font-style="normal" font-variant="normal" font-weight="600" letter-spacing="0" text-anchor="middle" word-spacing="0" xml:space="preserve" style="text-align:center;line-height:125%;-inkscape-font-specification:FreeSans Semi-Bold"><tspan id="tspan4604-8" x="280.747" y="-123.094">ChangeSource</tspan></text></g><g id="g5660" transform="translate(-133.20541,148.79112)"><path id="path5662" fill="#000" fill-opacity="1" stroke="#303539" stroke-dasharray="none" stroke-miterlimit="4" stroke-width="0" d="m 343.25511,-112.26053 c 0,0.55 -0.45,1 -1,1 h -119 c -0.55,0 -1,-0.45 -1,-1 v -26.035 c 0,-0.55 0.45,-1 1,-1 h 119 c 0.55,0 1,0.45 1,1 v 26.035 z" filter="url(#filter5617)" opacity=".5"/><path id="path5664" fill="url(#linearGradient5670)" fill-opacity="1" stroke="#303539" d="m 341.25511,-114.26053 c 0,0.55 -0.45,1 -1,1 h -119 c -0.55,0 -1,-0.45 -1,-1 v -26.035 c 0,-0.55 0.45,-1 1,-1 h 119 c 0.55,0 1,0.45 1,1 v 26.035 z"/><text font-stretch="normal" style="text-align:center;line-height:125%;-inkscape-font-specification:FreeSans Semi-Bold" id="text5666" x="280.747" y="-123.094" fill="#000" fill-opacity="1" stroke="none" font-family="FreeSans" font-size="16" font-style="normal" font-variant="normal" font-weight="600" letter-spacing="0" text-anchor="middle" word-spacing="0" xml:space="preserve"><tspan id="tspan5668" x="280.747" y="-123.094">ChangeSource</tspan></text></g><g id="g5687" transform="translate(-43.260197,183.28756)"><circle id="circle5689" cx="110.227" cy="56.945" r="38.569" fill="#000" fill-opacity="1" stroke="none" d="m 148.796,56.945 c 0,21.30107 -17.26793,38.569 -38.569,38.569 -21.301073,0 -38.569003,-17.26793 -38.569003,-38.569 0,-21.301071 17.26793,-38.569001 38.569003,-38.569001 21.30107,0 38.569,17.26793 38.569,38.569001 z" filter="url(#filter5676)" opacity=".5" transform="matrix(1.0064674,0,0,0.55972029,-25.945164,-127.37363)"/><polygon id="polygon5691" fill="#303539" points="155.802 54.909 155.802 57.13 139.826 66.769 120.395 66.769 131.145 56.02 120.395 45.27 139.826 45.27" transform="matrix(2.0733788,0,0,0.68481863,-193.65979,-135.86356)"/><circle id="circle5693" cx="110.227" cy="56.945" r="38.569" fill="#d9d5d2" fill-opacity="1" stroke="#303539" stroke-width="2" d="m 148.796,56.945 c 0,21.30107 -17.26793,38.569 -38.569,38.569 -21.301073,0 -38.569003,-17.26793 -38.569003,-38.569 0,-21.301071 17.26793,-38.569001 38.569003,-38.569001 21.30107,0 38.569,17.26793 38.569,38.569001 z" transform="matrix(1.0064674,0,0,0.55972029,-27.945164,-129.37363)"/><text font-stretch="normal" style="text-align:center;line-height:125%;-inkscape-font-specification:FreeSans Semi-Bold" id="text5695" x="83.16" y="-91.756" fill="#000" fill-opacity="1" stroke="none" font-family="FreeSans" font-size="16" font-style="normal" font-variant="normal" font-weight="600" letter-spacing="0" text-anchor="middle" word-spacing="0" xml:space="preserve"><tspan id="tspan5697" x="83.16" y="-91.756">VCS</tspan></text></g><g id="g5715" transform="translate(114.8532,13.269438)"><ellipse id="ellipse5717" cx="187.658" cy="56.098" fill="#000" fill-opacity="1" stroke="none" d="m 207.56301,56.098 c 0,6.99579 -8.91178,12.666999 -19.90501,12.666999 -10.99322,0 -19.905,-5.671209 -19.905,-12.666999 0,-6.995791 8.91178,-12.667 19.905,-12.667 10.99323,0 19.90501,5.671209 19.90501,12.667 z" filter="url(#filter5701)" opacity=".5" rx="19.905" ry="12.667" transform="translate(-0.46419049,-13)"/><ellipse id="ellipse5719" cx="187.658" cy="56.098" fill="#fff" fill-opacity="1" stroke="#303539" stroke-width=".5" d="m 207.56301,56.098 c 0,6.99579 -8.91178,12.666999 -19.90501,12.666999 -10.99322,0 -19.905,-5.671209 -19.905,-12.666999 0,-6.995791 8.91178,-12.667 19.905,-12.667 10.99323,0 19.90501,5.671209 19.90501,12.667 z" rx="19.905" ry="12.667" transform="translate(-2.4641905,-15)"/><path id="path5721" fill="#d93d04" d="m 176.09981,45.267 c -0.304,0.159 -0.796,0.261 -1.405,0.261 -1.897,0 -3.272,-1.535 -3.272,-4.851 0,-3.852 1.912,-5.083 3.461,-5.083 0.579,0 1.014,0.116 1.202,0.246 l -0.246,0.941 c -0.231,-0.102 -0.463,-0.203 -0.97,-0.203 -1.042,0 -2.273,1.014 -2.273,3.997 0,2.983 1.101,3.968 2.303,3.968 0.42,0 0.782,-0.101 1.013,-0.203 l 0.187,0.927 z"/><path id="path5723" fill="#d93d04" d="m 177.84681,38.118 v 3.14 h 2.053 v -3.14 h 0.837 v 7.323 h -0.837 v -3.422 h -2.053 v 3.422 h -0.836 v -7.323 h 0.836 z"/><path id="path5725" fill="#d93d04" d="m 182.91681,43.246 -0.478,2.195 h -0.814 l 1.673,-7.323 h 0.923 l 1.63,7.323 h -0.826 l -0.478,-2.195 h -1.63 z m 1.511,-0.673 -0.38,-1.858 c -0.108,-0.521 -0.207,-1.13 -0.293,-1.673 h -0.032 c -0.087,0.554 -0.196,1.184 -0.304,1.673 l -0.38,1.858 h 1.389 z"/><path id="path5727" fill="#d93d04" d="m 186.77081,45.441 v -7.323 h 0.782 l 1.347,3.434 c 0.304,0.793 0.685,1.76 0.935,2.553 h 0.021 c -0.065,-1.151 -0.098,-2.097 -0.098,-3.368 v -2.619 h 0.75 v 7.323 h -0.782 l -1.391,-3.52 c -0.304,-0.739 -0.619,-1.575 -0.88,-2.488 h -0.022 c 0.065,0.978 0.087,1.912 0.087,3.477 v 2.531 h -0.749 z"/><path id="path5729" fill="#d93d04" d="m 195.40481,45.256 c -0.304,0.13 -0.837,0.25 -1.293,0.25 -0.641,0 -1.238,-0.174 -1.728,-0.706 -0.532,-0.565 -0.891,-1.575 -0.88,-2.922 0.011,-2.857 1.467,-3.824 2.76,-3.824 0.456,0 0.814,0.087 1.032,0.207 l -0.185,0.717 c -0.196,-0.098 -0.445,-0.174 -0.836,-0.174 -0.913,0 -1.901,0.728 -1.901,2.999 0,2.26 0.858,2.988 1.738,2.988 0.282,0 0.445,-0.043 0.511,-0.087 v -2.39 h -0.945 v -0.695 h 1.728 v 3.637 z"/><path id="path5731" fill="#d93d04" d="m 199.21481,41.964 h -1.836 v 2.749 h 2.086 v 0.728 h -2.922 v -7.323 h 2.792 v 0.728 h -1.956 v 2.412 h 1.836 v 0.706 z"/></g><g id="g5733" transform="translate(160.8532,13.269438)"><ellipse id="ellipse5735" cx="187.658" cy="56.098" fill="#000" fill-opacity="1" stroke="none" d="m 207.56301,56.098 c 0,6.99579 -8.91178,12.666999 -19.90501,12.666999 -10.99322,0 -19.905,-5.671209 -19.905,-12.666999 0,-6.995791 8.91178,-12.667 19.905,-12.667 10.99323,0 19.90501,5.671209 19.90501,12.667 z" filter="url(#filter5701)" opacity=".5" rx="19.905" ry="12.667" transform="translate(-0.46419049,-13)"/><ellipse id="ellipse5737" cx="187.658" cy="56.098" fill="#fff" fill-opacity="1" stroke="#303539" stroke-width=".5" d="m 207.56301,56.098 c 0,6.99579 -8.91178,12.666999 -19.90501,12.666999 -10.99322,0 -19.905,-5.671209 -19.905,-12.666999 0,-6.995791 8.91178,-12.667 19.905,-12.667 10.99323,0 19.90501,5.671209 19.90501,12.667 z" rx="19.905" ry="12.667" transform="translate(-2.4641905,-15)"/><path id="path5739" fill="#d93d04" d="m 176.09981,45.267 c -0.304,0.159 -0.796,0.261 -1.405,0.261 -1.897,0 -3.272,-1.535 -3.272,-4.851 0,-3.852 1.912,-5.083 3.461,-5.083 0.579,0 1.014,0.116 1.202,0.246 l -0.246,0.941 c -0.231,-0.102 -0.463,-0.203 -0.97,-0.203 -1.042,0 -2.273,1.014 -2.273,3.997 0,2.983 1.101,3.968 2.303,3.968 0.42,0 0.782,-0.101 1.013,-0.203 l 0.187,0.927 z"/><path id="path5741" fill="#d93d04" d="m 177.84681,38.118 v 3.14 h 2.053 v -3.14 h 0.837 v 7.323 h -0.837 v -3.422 h -2.053 v 3.422 h -0.836 v -7.323 h 0.836 z"/><path id="path5743" fill="#d93d04" d="m 182.91681,43.246 -0.478,2.195 h -0.814 l 1.673,-7.323 h 0.923 l 1.63,7.323 h -0.826 l -0.478,-2.195 h -1.63 z m 1.511,-0.673 -0.38,-1.858 c -0.108,-0.521 -0.207,-1.13 -0.293,-1.673 h -0.032 c -0.087,0.554 -0.196,1.184 -0.304,1.673 l -0.38,1.858 h 1.389 z"/><path id="path5745" fill="#d93d04" d="m 186.77081,45.441 v -7.323 h 0.782 l 1.347,3.434 c 0.304,0.793 0.685,1.76 0.935,2.553 h 0.021 c -0.065,-1.151 -0.098,-2.097 -0.098,-3.368 v -2.619 h 0.75 v 7.323 h -0.782 l -1.391,-3.52 c -0.304,-0.739 -0.619,-1.575 -0.88,-2.488 h -0.022 c 0.065,0.978 0.087,1.912 0.087,3.477 v 2.531 h -0.749 z"/><path id="path5747" fill="#d93d04" d="m 195.40481,45.256 c -0.304,0.13 -0.837,0.25 -1.293,0.25 -0.641,0 -1.238,-0.174 -1.728,-0.706 -0.532,-0.565 -0.891,-1.575 -0.88,-2.922 0.011,-2.857 1.467,-3.824 2.76,-3.824 0.456,0 0.814,0.087 1.032,0.207 l -0.185,0.717 c -0.196,-0.098 -0.445,-0.174 -0.836,-0.174 -0.913,0 -1.901,0.728 -1.901,2.999 0,2.26 0.858,2.988 1.738,2.988 0.282,0 0.445,-0.043 0.511,-0.087 v -2.39 h -0.945 v -0.695 h 1.728 v 3.637 z"/><path id="path5749" fill="#d93d04" d="m 199.21481,41.964 h -1.836 v 2.749 h 2.086 v 0.728 h -2.922 v -7.323 h 2.792 v 0.728 h -1.956 v 2.412 h 1.836 v 0.706 z"/></g><g id="g5751" transform="translate(192.8532,43.269438)"><ellipse id="ellipse5753" cx="187.658" cy="56.098" fill="#000" fill-opacity="1" stroke="none" d="m 207.56301,56.098 c 0,6.99579 -8.91178,12.666999 -19.90501,12.666999 -10.99322,0 -19.905,-5.671209 -19.905,-12.666999 0,-6.995791 8.91178,-12.667 19.905,-12.667 10.99323,0 19.90501,5.671209 19.90501,12.667 z" filter="url(#filter5701)" opacity=".5" rx="19.905" ry="12.667" transform="translate(-0.46419049,-13)"/><ellipse id="ellipse5755" cx="187.658" cy="56.098" fill="#fff" fill-opacity="1" stroke="#303539" stroke-width=".5" d="m 207.56301,56.098 c 0,6.99579 -8.91178,12.666999 -19.90501,12.666999 -10.99322,0 -19.905,-5.671209 -19.905,-12.666999 0,-6.995791 8.91178,-12.667 19.905,-12.667 10.99323,0 19.90501,5.671209 19.90501,12.667 z" rx="19.905" ry="12.667" transform="translate(-2.4641905,-15)"/><path id="path5757" fill="#d93d04" d="m 176.09981,45.267 c -0.304,0.159 -0.796,0.261 -1.405,0.261 -1.897,0 -3.272,-1.535 -3.272,-4.851 0,-3.852 1.912,-5.083 3.461,-5.083 0.579,0 1.014,0.116 1.202,0.246 l -0.246,0.941 c -0.231,-0.102 -0.463,-0.203 -0.97,-0.203 -1.042,0 -2.273,1.014 -2.273,3.997 0,2.983 1.101,3.968 2.303,3.968 0.42,0 0.782,-0.101 1.013,-0.203 l 0.187,0.927 z"/><path id="path5759" fill="#d93d04" d="m 177.84681,38.118 v 3.14 h 2.053 v -3.14 h 0.837 v 7.323 h -0.837 v -3.422 h -2.053 v 3.422 h -0.836 v -7.323 h 0.836 z"/><path id="path5761" fill="#d93d04" d="m 182.91681,43.246 -0.478,2.195 h -0.814 l 1.673,-7.323 h 0.923 l 1.63,7.323 h -0.826 l -0.478,-2.195 h -1.63 z m 1.511,-0.673 -0.38,-1.858 c -0.108,-0.521 -0.207,-1.13 -0.293,-1.673 h -0.032 c -0.087,0.554 -0.196,1.184 -0.304,1.673 l -0.38,1.858 h 1.389 z"/><path id="path5763" fill="#d93d04" d="m 186.77081,45.441 v -7.323 h 0.782 l 1.347,3.434 c 0.304,0.793 0.685,1.76 0.935,2.553 h 0.021 c -0.065,-1.151 -0.098,-2.097 -0.098,-3.368 v -2.619 h 0.75 v 7.323 h -0.782 l -1.391,-3.52 c -0.304,-0.739 -0.619,-1.575 -0.88,-2.488 h -0.022 c 0.065,0.978 0.087,1.912 0.087,3.477 v 2.531 h -0.749 z"/><path id="path5765" fill="#d93d04" d="m 195.40481,45.256 c -0.304,0.13 -0.837,0.25 -1.293,0.25 -0.641,0 -1.238,-0.174 -1.728,-0.706 -0.532,-0.565 -0.891,-1.575 -0.88,-2.922 0.011,-2.857 1.467,-3.824 2.76,-3.824 0.456,0 0.814,0.087 1.032,0.207 l -0.185,0.717 c -0.196,-0.098 -0.445,-0.174 -0.836,-0.174 -0.913,0 -1.901,0.728 -1.901,2.999 0,2.26 0.858,2.988 1.738,2.988 0.282,0 0.445,-0.043 0.511,-0.087 v -2.39 h -0.945 v -0.695 h 1.728 v 3.637 z"/><path id="path5767" fill="#d93d04" d="m 199.21481,41.964 h -1.836 v 2.749 h 2.086 v 0.728 h -2.922 v -7.323 h 2.792 v 0.728 h -1.956 v 2.412 h 1.836 v 0.706 z"/></g><g id="g5802" transform="translate(28.040044,225.89073)"><g id="g5818" transform="translate(0,28)"><path id="path5804" fill="#000" fill-opacity="1" stroke="#303539" stroke-dasharray="none" stroke-miterlimit="4" stroke-width="0" d="m 343.25511,-112.26053 c 0,0.55 -0.45,1 -1,1 h -119 c -0.55,0 -1,-0.45 -1,-1 v -26.035 c 0,-0.55 0.45,-1 1,-1 h 119 c 0.55,0 1,0.45 1,1 v 26.035 z" filter="url(#filter5617)" opacity=".5"/><path id="path5806" fill="url(#linearGradient5824)" fill-opacity="1" stroke="#303539" d="m 341.25511,-114.26053 c 0,0.55 -0.45,1 -1,1 h -119 c -0.55,0 -1,-0.45 -1,-1 v -26.035 c 0,-0.55 0.45,-1 1,-1 h 119 c 0.55,0 1,0.45 1,1 v 26.035 z"/><text id="text5808" x="280.747" y="-123.094" fill="#000" fill-opacity="1" stroke="none" font-family="FreeSans" font-size="16" font-stretch="normal" font-style="normal" font-variant="normal" font-weight="600" letter-spacing="0" text-anchor="middle" word-spacing="0" xml:space="preserve" style="text-align:center;line-height:125%;-inkscape-font-specification:FreeSans Semi-Bold"><tspan id="tspan5814" x="280.747" y="-123.094">Scheduler</tspan></text></g></g><g id="g5826" transform="translate(168.04004,225.89073)"><g id="g5828" transform="translate(0,28)"><path id="path5830" fill="#000" fill-opacity="1" stroke="#303539" stroke-dasharray="none" stroke-miterlimit="4" stroke-width="0" d="m 343.25511,-112.26053 c 0,0.55 -0.45,1 -1,1 h -119 c -0.55,0 -1,-0.45 -1,-1 v -26.035 c 0,-0.55 0.45,-1 1,-1 h 119 c 0.55,0 1,0.45 1,1 v 26.035 z" filter="url(#filter5617)" opacity=".5"/><path id="path5832" fill="url(#linearGradient5838)" fill-opacity="1" stroke="#303539" d="m 341.25511,-114.26053 c 0,0.55 -0.45,1 -1,1 h -119 c -0.55,0 -1,-0.45 -1,-1 v -26.035 c 0,-0.55 0.45,-1 1,-1 h 119 c 0.55,0 1,0.45 1,1 v 26.035 z"/><text font-stretch="normal" style="text-align:center;line-height:125%;-inkscape-font-specification:FreeSans Semi-Bold" id="text5834" x="280.747" y="-123.094" fill="#000" fill-opacity="1" stroke="none" font-family="FreeSans" font-size="16" font-style="normal" font-variant="normal" font-weight="600" letter-spacing="0" text-anchor="middle" word-spacing="0" xml:space="preserve"><tspan id="tspan5836" x="280.747" y="-123.094">Scheduler</tspan></text></g></g><circle id="circle5842" cx="110.227" cy="56.945" r="38.569" fill="#000" fill-opacity="1" stroke="none" d="m 148.796,56.945 c 0,21.30107 -17.26793,38.569 -38.569,38.569 -21.301073,0 -38.569003,-17.26793 -38.569003,-38.569 0,-21.301071 17.26793,-38.569001 38.569003,-38.569001 21.30107,0 38.569,17.26793 38.569,38.569001 z" filter="url(#filter5676)" opacity=".5" transform="matrix(1.0064674,0,0,0.55972029,363.86006,22.127156)"/><circle id="circle5846" cx="110.227" cy="56.945" r="38.569" fill="#d9d5d2" fill-opacity="1" stroke="#303539" stroke-width="2" d="m 148.796,56.945 c 0,21.30107 -17.26793,38.569 -38.569,38.569 -21.301073,0 -38.569003,-17.26793 -38.569003,-38.569 0,-21.301071 17.26793,-38.569001 38.569003,-38.569001 21.30107,0 38.569,17.26793 38.569,38.569001 z" transform="matrix(1.0064674,0,0,0.55972029,361.86006,20.127156)"/><text id="text5848" x="472.965" y="57.744" fill="#000" fill-opacity="1" stroke="none" font-family="FreeSans" font-size="16" font-stretch="normal" font-style="normal" font-variant="normal" font-weight="600" letter-spacing="0" text-anchor="middle" word-spacing="0" xml:space="preserve" style="text-align:center;line-height:125%;-inkscape-font-specification:FreeSans Semi-Bold"><tspan id="tspan5850" x="472.965" y="57.744">HTTP</tspan></text><g id="g5900" transform="translate(-14.503003,42.412773)"><ellipse id="ellipse5902" cx="417.754" cy="185" fill="#000" fill-opacity="1" stroke="none" d="m 437.92,185 c 0,10.34098 -9.02863,18.724 -20.166,18.724 -11.13738,0 -20.166,-8.38302 -20.166,-18.724 0,-10.34098 9.02862,-18.724 20.166,-18.724 11.13737,0 20.166,8.38302 20.166,18.724 z" filter="url(#filter5880)" opacity=".5" rx="20.166" ry="18.724" transform="translate(-0.46419049,-13)"/><ellipse id="ellipse5904" cx="417.754" cy="185" fill="#fff" fill-opacity="1" stroke="#303539" stroke-width=".5" d="m 437.92,185 c 0,10.34098 -9.02863,18.724 -20.166,18.724 -11.13738,0 -20.166,-8.38302 -20.166,-18.724 0,-10.34098 9.02862,-18.724 20.166,-18.724 11.13737,0 20.166,8.38302 20.166,18.724 z" rx="20.166" ry="18.724" transform="translate(-2.4641905,-15)"/><path id="path5906" fill="#d93d04" d="m 405.53781,157.913 c 0.484,-0.121 1.044,-0.197 1.694,-0.197 0.923,0 1.708,0.197 2.253,0.711 0.438,0.408 0.666,1.013 0.666,1.739 0,1.043 -0.575,1.86 -1.573,2.253 v 0.045 c 1.179,0.318 1.89,1.271 1.89,2.601 0,0.847 -0.271,1.527 -0.726,2.026 -0.574,0.65 -1.526,0.922 -2.691,0.922 -0.741,0 -1.194,-0.045 -1.513,-0.106 v -9.994 z m 1.15,4.173 h 0.529 c 0.952,0 1.769,-0.726 1.769,-1.799 0,-0.938 -0.438,-1.664 -1.679,-1.664 -0.271,0 -0.484,0.03 -0.619,0.076 v 3.387 z m 0,4.945 c 0.135,0.03 0.332,0.061 0.589,0.061 1.194,0 1.981,-0.711 1.981,-2.026 0,-1.406 -0.969,-2.072 -2.057,-2.087 h -0.514 v 4.052 z"/><path id="path5908" fill="#d93d04" d="m 412.27881,161.155 v 4.559 c 0,1.221 0.413,1.634 0.918,1.634 0.575,0 0.948,-0.444 0.948,-1.634 v -4.559 h 0.776 v 4.438 c 0,1.765 -0.726,2.441 -1.735,2.441 -1.018,0 -1.684,-0.666 -1.684,-2.35 v -4.528 h 0.777 z"/><path id="path5910" fill="#d93d04" d="m 416.89681,161.155 v 6.798 h -0.777 v -6.798 h 0.777 z"/><path id="path5912" fill="#d93d04" d="m 418.12581,161.155 h 0.777 v 6.142 h 1.906 v 0.656 h -2.684 v -6.798 z"/><path id="path5914" fill="#d93d04" d="m 421.60381,161.256 c 0.293,-0.091 0.656,-0.131 1.039,-0.131 0.717,0 1.221,0.182 1.594,0.514 0.524,0.454 0.918,1.332 0.918,2.753 0,1.553 -0.383,2.401 -0.816,2.875 -0.444,0.495 -1.09,0.727 -1.877,0.727 -0.313,0 -0.635,-0.021 -0.857,-0.071 v -6.667 z m 0.768,6.072 c 0.11,0.021 0.221,0.021 0.292,0.021 0.857,0 1.685,-0.625 1.685,-2.935 0,-1.715 -0.525,-2.653 -1.613,-2.653 -0.121,0 -0.264,0.01 -0.363,0.041 v 5.526 z"/><path id="path5916" fill="#d93d04" d="m 401.14881,169.34 c 0.484,-0.136 1.09,-0.197 1.664,-0.197 1.014,0 1.77,0.212 2.299,0.726 0.498,0.514 0.71,1.194 0.71,1.996 0,1.3 -0.604,2.147 -1.633,2.631 v 0.03 c 0.756,0.227 1.149,0.953 1.36,2.283 0.242,1.391 0.439,2.253 0.59,2.571 h -1.18 c -0.15,-0.302 -0.348,-1.27 -0.544,-2.51 -0.227,-1.406 -0.665,-1.92 -1.663,-1.92 h -0.453 v 4.431 h -1.15 V 169.34 z m 1.151,4.702 h 0.498 c 1.104,0 1.846,-0.816 1.846,-2.042 0,-1.179 -0.484,-1.905 -1.725,-1.92 -0.242,0 -0.469,0.015 -0.619,0.061 v 3.901 z"/><path id="path5918" fill="#d93d04" d="m 409.49881,176.153 h -1.704 v 2.552 h 1.937 v 0.676 h -2.713 v -6.798 h 2.592 v 0.676 h -1.815 v 2.239 h 1.704 v 0.655 z"/><path id="path5920" fill="#d93d04" d="m 414.02581,180.298 c -0.514,-0.212 -1.199,-0.535 -1.563,-0.736 -0.111,-0.061 -0.202,-0.101 -0.252,-0.101 -1.12,0 -1.906,-1.12 -1.906,-3.49 0,-2.269 0.816,-3.47 2.007,-3.47 1.159,0 1.846,1.271 1.846,3.43 0,1.855 -0.435,2.875 -1.16,3.217 v 0.03 c 0.454,0.202 0.918,0.353 1.321,0.494 l -0.293,0.626 z m -0.676,-4.337 c 0,-1.301 -0.231,-2.774 -1.099,-2.774 -0.878,0 -1.14,1.483 -1.14,2.784 -0.01,1.332 0.252,2.804 1.149,2.804 0.859,0 1.09,-1.472 1.09,-2.814 z"/><path id="path5922" fill="#d93d04" d="m 415.84981,172.583 v 4.559 c 0,1.221 0.414,1.634 0.918,1.634 0.574,0 0.948,-0.444 0.948,-1.634 v -4.559 h 0.776 v 4.438 c 0,1.765 -0.727,2.441 -1.734,2.441 -1.02,0 -1.685,-0.666 -1.685,-2.35 v -4.528 h 0.777 z"/><path id="path5924" fill="#d93d04" d="m 422.17281,176.153 h -1.704 v 2.552 h 1.937 v 0.676 h -2.713 v -6.798 h 2.592 v 0.676 h -1.815 v 2.239 h 1.704 v 0.655 z"/><path id="path5926" fill="#d93d04" d="m 423.10981,178.483 c 0.221,0.151 0.635,0.272 0.968,0.272 0.716,0 1.14,-0.464 1.14,-1.149 0,-0.625 -0.363,-1.009 -0.898,-1.412 -0.544,-0.374 -1.28,-1.009 -1.28,-1.886 0,-1.029 0.716,-1.785 1.796,-1.785 0.423,0 0.786,0.131 0.947,0.252 l -0.182,0.666 c -0.172,-0.121 -0.453,-0.232 -0.807,-0.232 -0.676,0 -0.988,0.504 -0.988,0.968 0,0.676 0.354,0.938 0.998,1.402 0.817,0.575 1.181,1.2 1.181,1.957 0,1.17 -0.817,1.906 -1.906,1.906 -0.464,0 -0.948,-0.151 -1.14,-0.292 l 0.171,-0.667 z"/><path id="path5928" fill="#d93d04" d="m 427.69781,173.278 h -1.241 v -0.696 h 3.258 v 0.696 h -1.24 v 6.102 h -0.776 v -6.102 z"/></g><g id="g5930" transform="translate(-61.195017,16.089761)"><ellipse id="ellipse5932" cx="417.754" cy="185" fill="#000" fill-opacity="1" stroke="none" d="m 437.92,185 c 0,10.34098 -9.02863,18.724 -20.166,18.724 -11.13738,0 -20.166,-8.38302 -20.166,-18.724 0,-10.34098 9.02862,-18.724 20.166,-18.724 11.13737,0 20.166,8.38302 20.166,18.724 z" filter="url(#filter5880)" opacity=".5" rx="20.166" ry="18.724" transform="translate(-0.46419049,-13)"/><ellipse id="ellipse5934" cx="417.754" cy="185" fill="#fff" fill-opacity="1" stroke="#303539" stroke-width=".5" d="m 437.92,185 c 0,10.34098 -9.02863,18.724 -20.166,18.724 -11.13738,0 -20.166,-8.38302 -20.166,-18.724 0,-10.34098 9.02862,-18.724 20.166,-18.724 11.13737,0 20.166,8.38302 20.166,18.724 z" rx="20.166" ry="18.724" transform="translate(-2.4641905,-15)"/><path id="path5936" fill="#d93d04" d="m 405.53781,157.913 c 0.484,-0.121 1.044,-0.197 1.694,-0.197 0.923,0 1.708,0.197 2.253,0.711 0.438,0.408 0.666,1.013 0.666,1.739 0,1.043 -0.575,1.86 -1.573,2.253 v 0.045 c 1.179,0.318 1.89,1.271 1.89,2.601 0,0.847 -0.271,1.527 -0.726,2.026 -0.574,0.65 -1.526,0.922 -2.691,0.922 -0.741,0 -1.194,-0.045 -1.513,-0.106 v -9.994 z m 1.15,4.173 h 0.529 c 0.952,0 1.769,-0.726 1.769,-1.799 0,-0.938 -0.438,-1.664 -1.679,-1.664 -0.271,0 -0.484,0.03 -0.619,0.076 v 3.387 z m 0,4.945 c 0.135,0.03 0.332,0.061 0.589,0.061 1.194,0 1.981,-0.711 1.981,-2.026 0,-1.406 -0.969,-2.072 -2.057,-2.087 h -0.514 v 4.052 z"/><path id="path5938" fill="#d93d04" d="m 412.27881,161.155 v 4.559 c 0,1.221 0.413,1.634 0.918,1.634 0.575,0 0.948,-0.444 0.948,-1.634 v -4.559 h 0.776 v 4.438 c 0,1.765 -0.726,2.441 -1.735,2.441 -1.018,0 -1.684,-0.666 -1.684,-2.35 v -4.528 h 0.777 z"/><path id="path5940" fill="#d93d04" d="m 416.89681,161.155 v 6.798 h -0.777 v -6.798 h 0.777 z"/><path id="path5942" fill="#d93d04" d="m 418.12581,161.155 h 0.777 v 6.142 h 1.906 v 0.656 h -2.684 v -6.798 z"/><path id="path5944" fill="#d93d04" d="m 421.60381,161.256 c 0.293,-0.091 0.656,-0.131 1.039,-0.131 0.717,0 1.221,0.182 1.594,0.514 0.524,0.454 0.918,1.332 0.918,2.753 0,1.553 -0.383,2.401 -0.816,2.875 -0.444,0.495 -1.09,0.727 -1.877,0.727 -0.313,0 -0.635,-0.021 -0.857,-0.071 v -6.667 z m 0.768,6.072 c 0.11,0.021 0.221,0.021 0.292,0.021 0.857,0 1.685,-0.625 1.685,-2.935 0,-1.715 -0.525,-2.653 -1.613,-2.653 -0.121,0 -0.264,0.01 -0.363,0.041 v 5.526 z"/><path id="path5946" fill="#d93d04" d="m 401.14881,169.34 c 0.484,-0.136 1.09,-0.197 1.664,-0.197 1.014,0 1.77,0.212 2.299,0.726 0.498,0.514 0.71,1.194 0.71,1.996 0,1.3 -0.604,2.147 -1.633,2.631 v 0.03 c 0.756,0.227 1.149,0.953 1.36,2.283 0.242,1.391 0.439,2.253 0.59,2.571 h -1.18 c -0.15,-0.302 -0.348,-1.27 -0.544,-2.51 -0.227,-1.406 -0.665,-1.92 -1.663,-1.92 h -0.453 v 4.431 h -1.15 V 169.34 z m 1.151,4.702 h 0.498 c 1.104,0 1.846,-0.816 1.846,-2.042 0,-1.179 -0.484,-1.905 -1.725,-1.92 -0.242,0 -0.469,0.015 -0.619,0.061 v 3.901 z"/><path id="path5948" fill="#d93d04" d="m 409.49881,176.153 h -1.704 v 2.552 h 1.937 v 0.676 h -2.713 v -6.798 h 2.592 v 0.676 h -1.815 v 2.239 h 1.704 v 0.655 z"/><path id="path5950" fill="#d93d04" d="m 414.02581,180.298 c -0.514,-0.212 -1.199,-0.535 -1.563,-0.736 -0.111,-0.061 -0.202,-0.101 -0.252,-0.101 -1.12,0 -1.906,-1.12 -1.906,-3.49 0,-2.269 0.816,-3.47 2.007,-3.47 1.159,0 1.846,1.271 1.846,3.43 0,1.855 -0.435,2.875 -1.16,3.217 v 0.03 c 0.454,0.202 0.918,0.353 1.321,0.494 l -0.293,0.626 z m -0.676,-4.337 c 0,-1.301 -0.231,-2.774 -1.099,-2.774 -0.878,0 -1.14,1.483 -1.14,2.784 -0.01,1.332 0.252,2.804 1.149,2.804 0.859,0 1.09,-1.472 1.09,-2.814 z"/><path id="path5952" fill="#d93d04" d="m 415.84981,172.583 v 4.559 c 0,1.221 0.414,1.634 0.918,1.634 0.574,0 0.948,-0.444 0.948,-1.634 v -4.559 h 0.776 v 4.438 c 0,1.765 -0.727,2.441 -1.734,2.441 -1.02,0 -1.685,-0.666 -1.685,-2.35 v -4.528 h 0.777 z"/><path id="path5954" fill="#d93d04" d="m 422.17281,176.153 h -1.704 v 2.552 h 1.937 v 0.676 h -2.713 v -6.798 h 2.592 v 0.676 h -1.815 v 2.239 h 1.704 v 0.655 z"/><path id="path5956" fill="#d93d04" d="m 423.10981,178.483 c 0.221,0.151 0.635,0.272 0.968,0.272 0.716,0 1.14,-0.464 1.14,-1.149 0,-0.625 -0.363,-1.009 -0.898,-1.412 -0.544,-0.374 -1.28,-1.009 -1.28,-1.886 0,-1.029 0.716,-1.785 1.796,-1.785 0.423,0 0.786,0.131 0.947,0.252 l -0.182,0.666 c -0.172,-0.121 -0.453,-0.232 -0.807,-0.232 -0.676,0 -0.988,0.504 -0.988,0.968 0,0.676 0.354,0.938 0.998,1.402 0.817,0.575 1.181,1.2 1.181,1.957 0,1.17 -0.817,1.906 -1.906,1.906 -0.464,0 -0.948,-0.151 -1.14,-0.292 l 0.171,-0.667 z"/><path id="path5958" fill="#d93d04" d="m 427.69781,173.278 h -1.241 v -0.696 h 3.258 v 0.696 h -1.24 v 6.102 h -0.776 v -6.102 z"/></g><g id="g5960" transform="translate(-144.23786,13.896176)"><ellipse id="ellipse5962" cx="417.754" cy="185" fill="#000" fill-opacity="1" stroke="none" d="m 437.92,185 c 0,10.34098 -9.02863,18.724 -20.166,18.724 -11.13738,0 -20.166,-8.38302 -20.166,-18.724 0,-10.34098 9.02862,-18.724 20.166,-18.724 11.13737,0 20.166,8.38302 20.166,18.724 z" filter="url(#filter5880)" opacity=".5" rx="20.166" ry="18.724" transform="translate(-0.46419049,-13)"/><ellipse id="ellipse5964" cx="417.754" cy="185" fill="#fff" fill-opacity="1" stroke="#303539" stroke-width=".5" d="m 437.92,185 c 0,10.34098 -9.02863,18.724 -20.166,18.724 -11.13738,0 -20.166,-8.38302 -20.166,-18.724 0,-10.34098 9.02862,-18.724 20.166,-18.724 11.13737,0 20.166,8.38302 20.166,18.724 z" rx="20.166" ry="18.724" transform="translate(-2.4641905,-15)"/><path id="path5966" fill="#d93d04" d="m 405.53781,157.913 c 0.484,-0.121 1.044,-0.197 1.694,-0.197 0.923,0 1.708,0.197 2.253,0.711 0.438,0.408 0.666,1.013 0.666,1.739 0,1.043 -0.575,1.86 -1.573,2.253 v 0.045 c 1.179,0.318 1.89,1.271 1.89,2.601 0,0.847 -0.271,1.527 -0.726,2.026 -0.574,0.65 -1.526,0.922 -2.691,0.922 -0.741,0 -1.194,-0.045 -1.513,-0.106 v -9.994 z m 1.15,4.173 h 0.529 c 0.952,0 1.769,-0.726 1.769,-1.799 0,-0.938 -0.438,-1.664 -1.679,-1.664 -0.271,0 -0.484,0.03 -0.619,0.076 v 3.387 z m 0,4.945 c 0.135,0.03 0.332,0.061 0.589,0.061 1.194,0 1.981,-0.711 1.981,-2.026 0,-1.406 -0.969,-2.072 -2.057,-2.087 h -0.514 v 4.052 z"/><path id="path5968" fill="#d93d04" d="m 412.27881,161.155 v 4.559 c 0,1.221 0.413,1.634 0.918,1.634 0.575,0 0.948,-0.444 0.948,-1.634 v -4.559 h 0.776 v 4.438 c 0,1.765 -0.726,2.441 -1.735,2.441 -1.018,0 -1.684,-0.666 -1.684,-2.35 v -4.528 h 0.777 z"/><path id="path5970" fill="#d93d04" d="m 416.89681,161.155 v 6.798 h -0.777 v -6.798 h 0.777 z"/><path id="path5972" fill="#d93d04" d="m 418.12581,161.155 h 0.777 v 6.142 h 1.906 v 0.656 h -2.684 v -6.798 z"/><path id="path5974" fill="#d93d04" d="m 421.60381,161.256 c 0.293,-0.091 0.656,-0.131 1.039,-0.131 0.717,0 1.221,0.182 1.594,0.514 0.524,0.454 0.918,1.332 0.918,2.753 0,1.553 -0.383,2.401 -0.816,2.875 -0.444,0.495 -1.09,0.727 -1.877,0.727 -0.313,0 -0.635,-0.021 -0.857,-0.071 v -6.667 z m 0.768,6.072 c 0.11,0.021 0.221,0.021 0.292,0.021 0.857,0 1.685,-0.625 1.685,-2.935 0,-1.715 -0.525,-2.653 -1.613,-2.653 -0.121,0 -0.264,0.01 -0.363,0.041 v 5.526 z"/><path id="path5976" fill="#d93d04" d="m 401.14881,169.34 c 0.484,-0.136 1.09,-0.197 1.664,-0.197 1.014,0 1.77,0.212 2.299,0.726 0.498,0.514 0.71,1.194 0.71,1.996 0,1.3 -0.604,2.147 -1.633,2.631 v 0.03 c 0.756,0.227 1.149,0.953 1.36,2.283 0.242,1.391 0.439,2.253 0.59,2.571 h -1.18 c -0.15,-0.302 -0.348,-1.27 -0.544,-2.51 -0.227,-1.406 -0.665,-1.92 -1.663,-1.92 h -0.453 v 4.431 h -1.15 V 169.34 z m 1.151,4.702 h 0.498 c 1.104,0 1.846,-0.816 1.846,-2.042 0,-1.179 -0.484,-1.905 -1.725,-1.92 -0.242,0 -0.469,0.015 -0.619,0.061 v 3.901 z"/><path id="path5978" fill="#d93d04" d="m 409.49881,176.153 h -1.704 v 2.552 h 1.937 v 0.676 h -2.713 v -6.798 h 2.592 v 0.676 h -1.815 v 2.239 h 1.704 v 0.655 z"/><path id="path5980" fill="#d93d04" d="m 414.02581,180.298 c -0.514,-0.212 -1.199,-0.535 -1.563,-0.736 -0.111,-0.061 -0.202,-0.101 -0.252,-0.101 -1.12,0 -1.906,-1.12 -1.906,-3.49 0,-2.269 0.816,-3.47 2.007,-3.47 1.159,0 1.846,1.271 1.846,3.43 0,1.855 -0.435,2.875 -1.16,3.217 v 0.03 c 0.454,0.202 0.918,0.353 1.321,0.494 l -0.293,0.626 z m -0.676,-4.337 c 0,-1.301 -0.231,-2.774 -1.099,-2.774 -0.878,0 -1.14,1.483 -1.14,2.784 -0.01,1.332 0.252,2.804 1.149,2.804 0.859,0 1.09,-1.472 1.09,-2.814 z"/><path id="path5982" fill="#d93d04" d="m 415.84981,172.583 v 4.559 c 0,1.221 0.414,1.634 0.918,1.634 0.574,0 0.948,-0.444 0.948,-1.634 v -4.559 h 0.776 v 4.438 c 0,1.765 -0.727,2.441 -1.734,2.441 -1.02,0 -1.685,-0.666 -1.685,-2.35 v -4.528 h 0.777 z"/><path id="path5984" fill="#d93d04" d="m 422.17281,176.153 h -1.704 v 2.552 h 1.937 v 0.676 h -2.713 v -6.798 h 2.592 v 0.676 h -1.815 v 2.239 h 1.704 v 0.655 z"/><path id="path5986" fill="#d93d04" d="m 423.10981,178.483 c 0.221,0.151 0.635,0.272 0.968,0.272 0.716,0 1.14,-0.464 1.14,-1.149 0,-0.625 -0.363,-1.009 -0.898,-1.412 -0.544,-0.374 -1.28,-1.009 -1.28,-1.886 0,-1.029 0.716,-1.785 1.796,-1.785 0.423,0 0.786,0.131 0.947,0.252 l -0.182,0.666 c -0.172,-0.121 -0.453,-0.232 -0.807,-0.232 -0.676,0 -0.988,0.504 -0.988,0.968 0,0.676 0.354,0.938 0.998,1.402 0.817,0.575 1.181,1.2 1.181,1.957 0,1.17 -0.817,1.906 -1.906,1.906 -0.464,0 -0.948,-0.151 -1.14,-0.292 l 0.171,-0.667 z"/><path id="path5988" fill="#d93d04" d="m 427.69781,173.278 h -1.241 v -0.696 h 3.258 v 0.696 h -1.24 v 6.102 h -0.776 v -6.102 z"/></g><g id="g5990" transform="translate(-191.5566,41.159296)"><ellipse id="ellipse5992" cx="417.754" cy="185" fill="#000" fill-opacity="1" stroke="none" d="m 437.92,185 c 0,10.34098 -9.02863,18.724 -20.166,18.724 -11.13738,0 -20.166,-8.38302 -20.166,-18.724 0,-10.34098 9.02862,-18.724 20.166,-18.724 11.13737,0 20.166,8.38302 20.166,18.724 z" filter="url(#filter5880)" opacity=".5" rx="20.166" ry="18.724" transform="translate(-0.46419049,-13)"/><ellipse id="ellipse5994" cx="417.754" cy="185" fill="#fff" fill-opacity="1" stroke="#303539" stroke-width=".5" d="m 437.92,185 c 0,10.34098 -9.02863,18.724 -20.166,18.724 -11.13738,0 -20.166,-8.38302 -20.166,-18.724 0,-10.34098 9.02862,-18.724 20.166,-18.724 11.13737,0 20.166,8.38302 20.166,18.724 z" rx="20.166" ry="18.724" transform="translate(-2.4641905,-15)"/><path id="path5996" fill="#d93d04" d="m 405.53781,157.913 c 0.484,-0.121 1.044,-0.197 1.694,-0.197 0.923,0 1.708,0.197 2.253,0.711 0.438,0.408 0.666,1.013 0.666,1.739 0,1.043 -0.575,1.86 -1.573,2.253 v 0.045 c 1.179,0.318 1.89,1.271 1.89,2.601 0,0.847 -0.271,1.527 -0.726,2.026 -0.574,0.65 -1.526,0.922 -2.691,0.922 -0.741,0 -1.194,-0.045 -1.513,-0.106 v -9.994 z m 1.15,4.173 h 0.529 c 0.952,0 1.769,-0.726 1.769,-1.799 0,-0.938 -0.438,-1.664 -1.679,-1.664 -0.271,0 -0.484,0.03 -0.619,0.076 v 3.387 z m 0,4.945 c 0.135,0.03 0.332,0.061 0.589,0.061 1.194,0 1.981,-0.711 1.981,-2.026 0,-1.406 -0.969,-2.072 -2.057,-2.087 h -0.514 v 4.052 z"/><path id="path5998" fill="#d93d04" d="m 412.27881,161.155 v 4.559 c 0,1.221 0.413,1.634 0.918,1.634 0.575,0 0.948,-0.444 0.948,-1.634 v -4.559 h 0.776 v 4.438 c 0,1.765 -0.726,2.441 -1.735,2.441 -1.018,0 -1.684,-0.666 -1.684,-2.35 v -4.528 h 0.777 z"/><path id="path6000" fill="#d93d04" d="m 416.89681,161.155 v 6.798 h -0.777 v -6.798 h 0.777 z"/><path id="path6002" fill="#d93d04" d="m 418.12581,161.155 h 0.777 v 6.142 h 1.906 v 0.656 h -2.684 v -6.798 z"/><path id="path6004" fill="#d93d04" d="m 421.60381,161.256 c 0.293,-0.091 0.656,-0.131 1.039,-0.131 0.717,0 1.221,0.182 1.594,0.514 0.524,0.454 0.918,1.332 0.918,2.753 0,1.553 -0.383,2.401 -0.816,2.875 -0.444,0.495 -1.09,0.727 -1.877,0.727 -0.313,0 -0.635,-0.021 -0.857,-0.071 v -6.667 z m 0.768,6.072 c 0.11,0.021 0.221,0.021 0.292,0.021 0.857,0 1.685,-0.625 1.685,-2.935 0,-1.715 -0.525,-2.653 -1.613,-2.653 -0.121,0 -0.264,0.01 -0.363,0.041 v 5.526 z"/><path id="path6006" fill="#d93d04" d="m 401.14881,169.34 c 0.484,-0.136 1.09,-0.197 1.664,-0.197 1.014,0 1.77,0.212 2.299,0.726 0.498,0.514 0.71,1.194 0.71,1.996 0,1.3 -0.604,2.147 -1.633,2.631 v 0.03 c 0.756,0.227 1.149,0.953 1.36,2.283 0.242,1.391 0.439,2.253 0.59,2.571 h -1.18 c -0.15,-0.302 -0.348,-1.27 -0.544,-2.51 -0.227,-1.406 -0.665,-1.92 -1.663,-1.92 h -0.453 v 4.431 h -1.15 V 169.34 z m 1.151,4.702 h 0.498 c 1.104,0 1.846,-0.816 1.846,-2.042 0,-1.179 -0.484,-1.905 -1.725,-1.92 -0.242,0 -0.469,0.015 -0.619,0.061 v 3.901 z"/><path id="path6008" fill="#d93d04" d="m 409.49881,176.153 h -1.704 v 2.552 h 1.937 v 0.676 h -2.713 v -6.798 h 2.592 v 0.676 h -1.815 v 2.239 h 1.704 v 0.655 z"/><path id="path6010" fill="#d93d04" d="m 414.02581,180.298 c -0.514,-0.212 -1.199,-0.535 -1.563,-0.736 -0.111,-0.061 -0.202,-0.101 -0.252,-0.101 -1.12,0 -1.906,-1.12 -1.906,-3.49 0,-2.269 0.816,-3.47 2.007,-3.47 1.159,0 1.846,1.271 1.846,3.43 0,1.855 -0.435,2.875 -1.16,3.217 v 0.03 c 0.454,0.202 0.918,0.353 1.321,0.494 l -0.293,0.626 z m -0.676,-4.337 c 0,-1.301 -0.231,-2.774 -1.099,-2.774 -0.878,0 -1.14,1.483 -1.14,2.784 -0.01,1.332 0.252,2.804 1.149,2.804 0.859,0 1.09,-1.472 1.09,-2.814 z"/><path id="path6012" fill="#d93d04" d="m 415.84981,172.583 v 4.559 c 0,1.221 0.414,1.634 0.918,1.634 0.574,0 0.948,-0.444 0.948,-1.634 v -4.559 h 0.776 v 4.438 c 0,1.765 -0.727,2.441 -1.734,2.441 -1.02,0 -1.685,-0.666 -1.685,-2.35 v -4.528 h 0.777 z"/><path id="path6014" fill="#d93d04" d="m 422.17281,176.153 h -1.704 v 2.552 h 1.937 v 0.676 h -2.713 v -6.798 h 2.592 v 0.676 h -1.815 v 2.239 h 1.704 v 0.655 z"/><path id="path6016" fill="#d93d04" d="m 423.10981,178.483 c 0.221,0.151 0.635,0.272 0.968,0.272 0.716,0 1.14,-0.464 1.14,-1.149 0,-0.625 -0.363,-1.009 -0.898,-1.412 -0.544,-0.374 -1.28,-1.009 -1.28,-1.886 0,-1.029 0.716,-1.785 1.796,-1.785 0.423,0 0.786,0.131 0.947,0.252 l -0.182,0.666 c -0.172,-0.121 -0.453,-0.232 -0.807,-0.232 -0.676,0 -0.988,0.504 -0.988,0.968 0,0.676 0.354,0.938 0.998,1.402 0.817,0.575 1.181,1.2 1.181,1.957 0,1.17 -0.817,1.906 -1.906,1.906 -0.464,0 -0.948,-0.151 -1.14,-0.292 l 0.171,-0.667 z"/><path id="path6018" fill="#d93d04" d="m 427.69781,173.278 h -1.241 v -0.696 h 3.258 v 0.696 h -1.24 v 6.102 h -0.776 v -6.102 z"/></g><g id="g6020" transform="translate(-30.458523,395.18204)"><g id="g6052" transform="translate(18.842552,-4.9421276)"><path id="path6040" fill="#000" fill-opacity="1" stroke="none" d="m 301.34926,-84.173093 c 0,0.553694 -0.2945,1.006717 -0.65444,1.006717 h -77.87941 c -0.35995,0 -0.65445,-0.453023 -0.65445,-1.006717 v -26.209877 c 0,-0.55369 0.2945,-1.00671 0.65445,-1.00671 h 77.87941 c 0.35994,0 0.65444,0.45302 0.65444,1.00671 v 26.209877 z" filter="url(#filter6048)" opacity=".5"/><path id="path6026" fill="url(#linearGradient6058)" fill-opacity="1" stroke="#303539" stroke-width=".812" d="m 299.34926,-86.173093 c 0,0.553694 -0.2945,1.006717 -0.65444,1.006717 h -77.87941 c -0.35995,0 -0.65445,-0.453023 -0.65445,-1.006717 v -26.209877 c 0,-0.55369 0.2945,-1.00671 0.65445,-1.00671 h 77.87941 c 0.35994,0 0.65444,0.45302 0.65444,1.00671 v 26.209877 z"/><text font-stretch="normal" style="text-align:center;line-height:125%;-inkscape-font-specification:FreeSans Semi-Bold" id="text6028" x="259.6" y="-93.534" fill="#000" fill-opacity="1" stroke="none" font-family="FreeSans" font-size="16" font-style="normal" font-variant="normal" font-weight="600" letter-spacing="0" text-anchor="middle" word-spacing="0" xml:space="preserve"><tspan id="tspan6030" x="259.6" y="-93.534">Builder</tspan></text></g><g id="g6060" transform="translate(147.93436,-4.9421276)"><path id="path6062" fill="#000" fill-opacity="1" stroke="none" d="m 301.34926,-84.173093 c 0,0.553694 -0.2945,1.006717 -0.65444,1.006717 h -77.87941 c -0.35995,0 -0.65445,-0.453023 -0.65445,-1.006717 v -26.209877 c 0,-0.55369 0.2945,-1.00671 0.65445,-1.00671 h 77.87941 c 0.35994,0 0.65444,0.45302 0.65444,1.00671 v 26.209877 z" filter="url(#filter6048)" opacity=".5"/><path id="path6064" fill="url(#linearGradient6070)" fill-opacity="1" stroke="#303539" stroke-width=".812" d="m 299.34926,-86.173093 c 0,0.553694 -0.2945,1.006717 -0.65444,1.006717 h -77.87941 c -0.35995,0 -0.65445,-0.453023 -0.65445,-1.006717 v -26.209877 c 0,-0.55369 0.2945,-1.00671 0.65445,-1.00671 h 77.87941 c 0.35994,0 0.65444,0.45302 0.65444,1.00671 v 26.209877 z"/><text id="text6066" x="259.6" y="-93.534" fill="#000" fill-opacity="1" stroke="none" font-family="FreeSans" font-size="16" font-stretch="normal" font-style="normal" font-variant="normal" font-weight="600" letter-spacing="0" text-anchor="middle" word-spacing="0" xml:space="preserve" style="text-align:center;line-height:125%;-inkscape-font-specification:FreeSans Semi-Bold"><tspan id="tspan6068" x="259.6" y="-93.534">Builder</tspan></text></g><g id="g6072" transform="translate(276.43401,-4.9421276)"><path id="path6074" fill="#000" fill-opacity="1" stroke="none" d="m 301.34926,-84.173093 c 0,0.553694 -0.2945,1.006717 -0.65444,1.006717 h -77.87941 c -0.35995,0 -0.65445,-0.453023 -0.65445,-1.006717 v -26.209877 c 0,-0.55369 0.2945,-1.00671 0.65445,-1.00671 h 77.87941 c 0.35994,0 0.65444,0.45302 0.65444,1.00671 v 26.209877 z" filter="url(#filter6048)" opacity=".5"/><path id="path6076" fill="url(#linearGradient6082)" fill-opacity="1" stroke="#303539" stroke-width=".812" d="m 299.34926,-86.173093 c 0,0.553694 -0.2945,1.006717 -0.65444,1.006717 h -77.87941 c -0.35995,0 -0.65445,-0.453023 -0.65445,-1.006717 v -26.209877 c 0,-0.55369 0.2945,-1.00671 0.65445,-1.00671 h 77.87941 c 0.35994,0 0.65444,0.45302 0.65444,1.00671 v 26.209877 z"/><text font-stretch="normal" style="text-align:center;line-height:125%;-inkscape-font-specification:FreeSans Semi-Bold" id="text6078" x="259.6" y="-93.534" fill="#000" fill-opacity="1" stroke="none" font-family="FreeSans" font-size="16" font-style="normal" font-variant="normal" font-weight="600" letter-spacing="0" text-anchor="middle" word-spacing="0" xml:space="preserve"><tspan id="tspan6080" x="259.6" y="-93.534">Builder</tspan></text></g></g></svg>