<svg xmlns="http://www.w3.org/2000/svg" xmlns:svg="http://www.w3.org/2000/svg" xmlns:xlink="http://www.w3.org/1999/xlink" id="svg2" width="2160" height="1080" version="1.1"><metadata id="metadata7"/><path id="path3594" fill="none" stroke="#000" stroke-dasharray="none" stroke-linecap="butt" stroke-linejoin="miter" stroke-miterlimit="4" stroke-opacity="1" stroke-width=".09" d="m 139.43797,123.71599 0,-67.441981 L 81,22.553017 22.563031,56.274009 l 0,67.441981 L 81,157.43698 139.43797,123.71599 z"/><path id="path2985" fill="none" stroke="#000" stroke-dasharray="none" stroke-dashoffset="0" stroke-miterlimit="4" stroke-opacity="1" stroke-width=".09" d="m 115.65951,89.369339 a 31.910877,31.910877 0 1 1 -63.821753,0 31.910877,31.910877 0 1 1 63.821753,0 z" transform="matrix(0.78834006,0,0,0.78834006,14.955974,19.703193)"/><path id="path3832" fill="none" stroke="none" stroke-dasharray="none" stroke-dashoffset="0" stroke-miterlimit="4" stroke-opacity="1" stroke-width=".08" d="m 115.65951,89.369339 a 31.910877,31.910877 0 1 1 -63.821753,0 31.910877,31.910877 0 1 1 63.821753,0 z" transform="matrix(0.97077804,0,0,0.97077804,-0.32295611,3.3988327)"/><text id="text3834" fill="#000" fill-opacity="1" stroke="none" font-family="Bitstream Vera Sans" font-size="40" font-style="normal" font-weight="normal" letter-spacing="0" word-spacing="0" xml:space="preserve" style="line-height:125%"><textPath font-style="normal" style="-inkscape-font-specification:Charcoal CY" id="textPath3838" dx="9.86 0 0 0 0 0" font-family="Charcoal CY" font-size="28" font-stretch="normal" font-variant="normal" font-weight="normal" letter-spacing="-1.43" xlink:href="#path3832">Buildbot</textPath></text></svg>